%TF.GenerationSoftware,KiCad,Pcbnew,(5.99.0-2809-gaceed2b0a4)*%
%TF.CreationDate,2020-09-01T01:10:01-04:00*%
%TF.ProjectId,athene-pcb-f072,61746865-6e65-42d7-9063-622d66303732,rev?*%
%TF.SameCoordinates,Original*%
%TF.FileFunction,Soldermask,Bot*%
%TF.FilePolarity,Negative*%
%FSLAX46Y46*%
G04 Gerber Fmt 4.6, Leading zero omitted, Abs format (unit mm)*
G04 Created by KiCad (PCBNEW (5.99.0-2809-gaceed2b0a4)) date 2020-09-01 01:10:01*
%MOMM*%
%LPD*%
G01*
G04 APERTURE LIST*
%ADD10C,5.000000*%
%ADD11C,3.987800*%
%ADD12C,3.048000*%
%ADD13C,3.300000*%
%ADD14R,1.700000X1.700000*%
%ADD15O,1.700000X1.700000*%
%ADD16R,1.200000X0.900000*%
%ADD17C,3.980180*%
%ADD18C,1.700000*%
%ADD19C,2.950000*%
%ADD20R,2.550000X2.500000*%
%ADD21C,0.650000*%
%ADD22R,0.600000X1.450000*%
%ADD23R,0.300000X1.450000*%
%ADD24R,0.800000X0.900000*%
%ADD25R,0.900000X1.200000*%
%ADD26R,1.998980X1.998980*%
%ADD27C,1.998980*%
%ADD28R,0.650000X1.060000*%
%ADD29C,2.550000*%
%ADD30R,1.100000X1.800000*%
%ADD31R,0.900000X0.800000*%
%ADD32R,1.060000X0.650000*%
G04 APERTURE END LIST*
D10*
%TO.C,H4*%
X203200000Y-101600000D03*
%TD*%
D11*
%TO.C,ST_LSHIFT*%
X49244250Y-90805000D03*
D12*
X25368250Y-75565000D03*
D11*
X25368250Y-90805000D03*
D12*
X49244250Y-75565000D03*
%TD*%
%TO.C,ST_BKSP*%
X270637000Y-18415000D03*
D11*
X270637000Y-33655000D03*
D12*
X294513000Y-18415000D03*
D11*
X294513000Y-33655000D03*
%TD*%
D13*
%TO.C,H5*%
X282575000Y-101600000D03*
%TD*%
%TO.C,H3*%
X144462500Y-63500000D03*
%TD*%
D10*
%TO.C,H2*%
X40481250Y-101600000D03*
%TD*%
D11*
%TO.C,ST_ENTER*%
X292131750Y-55245000D03*
X268255750Y-55245000D03*
D12*
X292131750Y-70485000D03*
X268255750Y-70485000D03*
%TD*%
D10*
%TO.C,H1*%
X40481250Y-44450000D03*
%TD*%
D14*
%TO.C,J3*%
X21590000Y-61366400D03*
D15*
X21590000Y-63906400D03*
X21590000Y-66446400D03*
X21590000Y-68986400D03*
X21590000Y-71526400D03*
X21590000Y-74066400D03*
%TD*%
D10*
%TO.C,H6*%
X276225000Y-44454000D03*
%TD*%
D16*
%TO.C,D32*%
X51196875Y-66675000D03*
X51196875Y-63375000D03*
%TD*%
%TO.C,D13*%
X246459375Y-28637500D03*
X246459375Y-25337500D03*
%TD*%
%TO.C,C9*%
G36*
G01*
X44501750Y-60170000D02*
X45414250Y-60170000D01*
G75*
G02*
X45658000Y-60413750I0J-243750D01*
G01*
X45658000Y-60901250D01*
G75*
G02*
X45414250Y-61145000I-243750J0D01*
G01*
X44501750Y-61145000D01*
G75*
G02*
X44258000Y-60901250I0J243750D01*
G01*
X44258000Y-60413750D01*
G75*
G02*
X44501750Y-60170000I243750J0D01*
G01*
G37*
G36*
G01*
X44501750Y-62045000D02*
X45414250Y-62045000D01*
G75*
G02*
X45658000Y-62288750I0J-243750D01*
G01*
X45658000Y-62776250D01*
G75*
G02*
X45414250Y-63020000I-243750J0D01*
G01*
X44501750Y-63020000D01*
G75*
G02*
X44258000Y-62776250I0J243750D01*
G01*
X44258000Y-62288750D01*
G75*
G02*
X44501750Y-62045000I243750J0D01*
G01*
G37*
%TD*%
%TO.C,D30*%
X303768125Y-47687500D03*
X303768125Y-44387500D03*
%TD*%
%TO.C,C2*%
G36*
G01*
X39398000Y-35992750D02*
X39398000Y-36905250D01*
G75*
G02*
X39154250Y-37149000I-243750J0D01*
G01*
X38666750Y-37149000D01*
G75*
G02*
X38423000Y-36905250I0J243750D01*
G01*
X38423000Y-35992750D01*
G75*
G02*
X38666750Y-35749000I243750J0D01*
G01*
X39154250Y-35749000D01*
G75*
G02*
X39398000Y-35992750I0J-243750D01*
G01*
G37*
G36*
G01*
X37523000Y-35992750D02*
X37523000Y-36905250D01*
G75*
G02*
X37279250Y-37149000I-243750J0D01*
G01*
X36791750Y-37149000D01*
G75*
G02*
X36548000Y-36905250I0J243750D01*
G01*
X36548000Y-35992750D01*
G75*
G02*
X36791750Y-35749000I243750J0D01*
G01*
X37279250Y-35749000D01*
G75*
G02*
X37523000Y-35992750I0J-243750D01*
G01*
G37*
%TD*%
D17*
%TO.C,K54*%
X220662500Y-82550000D03*
D18*
X215582500Y-82550000D03*
D19*
X223202500Y-77470000D03*
X216852500Y-80010000D03*
D18*
X225742500Y-82550000D03*
D20*
X213302500Y-80010000D03*
X226752500Y-77470000D03*
%TD*%
D16*
%TO.C,D6*%
X113109375Y-28637500D03*
X113109375Y-25337500D03*
%TD*%
D21*
%TO.C,J1*%
X32035000Y-22062500D03*
X37815000Y-22062500D03*
D22*
X31700000Y-23507500D03*
X32475000Y-23507500D03*
D23*
X33175000Y-23507500D03*
X33675000Y-23507500D03*
X34175000Y-23507500D03*
X34675000Y-23507500D03*
X35175000Y-23507500D03*
X35675000Y-23507500D03*
X36175000Y-23507500D03*
X36675000Y-23507500D03*
D22*
X37375000Y-23507500D03*
X38150000Y-23507500D03*
%TD*%
D16*
%TO.C,D5*%
X94059375Y-28637500D03*
X94059375Y-25337500D03*
%TD*%
D18*
%TO.C,K14*%
X287655000Y-25400000D03*
D19*
X278765000Y-22860000D03*
D17*
X282575000Y-25400000D03*
D18*
X277495000Y-25400000D03*
D19*
X285115000Y-20320000D03*
D20*
X275215000Y-22860000D03*
X288665000Y-20320000D03*
%TD*%
D16*
%TO.C,D3*%
X55959375Y-28637500D03*
X55959375Y-25337500D03*
%TD*%
%TO.C,D40*%
X203596875Y-66737500D03*
X203596875Y-63437500D03*
%TD*%
%TO.C,C18*%
G36*
G01*
X45552550Y-80744000D02*
X46465050Y-80744000D01*
G75*
G02*
X46708800Y-80987750I0J-243750D01*
G01*
X46708800Y-81475250D01*
G75*
G02*
X46465050Y-81719000I-243750J0D01*
G01*
X45552550Y-81719000D01*
G75*
G02*
X45308800Y-81475250I0J243750D01*
G01*
X45308800Y-80987750D01*
G75*
G02*
X45552550Y-80744000I243750J0D01*
G01*
G37*
G36*
G01*
X45552550Y-82619000D02*
X46465050Y-82619000D01*
G75*
G02*
X46708800Y-82862750I0J-243750D01*
G01*
X46708800Y-83350250D01*
G75*
G02*
X46465050Y-83594000I-243750J0D01*
G01*
X45552550Y-83594000D01*
G75*
G02*
X45308800Y-83350250I0J243750D01*
G01*
X45308800Y-82862750D01*
G75*
G02*
X45552550Y-82619000I243750J0D01*
G01*
G37*
%TD*%
%TO.C,D7*%
X132159375Y-28637500D03*
X132159375Y-25337500D03*
%TD*%
D24*
%TO.C,U3*%
X42479000Y-37830000D03*
X40579000Y-37830000D03*
X41529000Y-35830000D03*
%TD*%
D19*
%TO.C,K58*%
X313690000Y-77470000D03*
X307340000Y-80010000D03*
D18*
X306070000Y-82550000D03*
D17*
X311150000Y-82550000D03*
D18*
X316230000Y-82550000D03*
D20*
X303790000Y-80010000D03*
X317240000Y-77470000D03*
%TD*%
D19*
%TO.C,K24*%
X183515000Y-41910000D03*
D18*
X192405000Y-44450000D03*
X182245000Y-44450000D03*
D19*
X189865000Y-39370000D03*
D17*
X187325000Y-44450000D03*
D20*
X179965000Y-41910000D03*
X193415000Y-39370000D03*
%TD*%
D16*
%TO.C,D25*%
X198993125Y-47687500D03*
X198993125Y-44387500D03*
%TD*%
%TO.C,D27*%
X237093125Y-47687500D03*
X237093125Y-44387500D03*
%TD*%
%TO.C,D43*%
X272653125Y-66737500D03*
X272653125Y-63437500D03*
%TD*%
%TO.C,C6*%
G36*
G01*
X47272000Y-43993750D02*
X47272000Y-44906250D01*
G75*
G02*
X47028250Y-45150000I-243750J0D01*
G01*
X46540750Y-45150000D01*
G75*
G02*
X46297000Y-44906250I0J243750D01*
G01*
X46297000Y-43993750D01*
G75*
G02*
X46540750Y-43750000I243750J0D01*
G01*
X47028250Y-43750000D01*
G75*
G02*
X47272000Y-43993750I0J-243750D01*
G01*
G37*
G36*
G01*
X45397000Y-43993750D02*
X45397000Y-44906250D01*
G75*
G02*
X45153250Y-45150000I-243750J0D01*
G01*
X44665750Y-45150000D01*
G75*
G02*
X44422000Y-44906250I0J243750D01*
G01*
X44422000Y-43993750D01*
G75*
G02*
X44665750Y-43750000I243750J0D01*
G01*
X45153250Y-43750000D01*
G75*
G02*
X45397000Y-43993750I0J-243750D01*
G01*
G37*
%TD*%
D17*
%TO.C,K51*%
X163512500Y-82550000D03*
D19*
X159702500Y-80010000D03*
D18*
X168592500Y-82550000D03*
D19*
X166052500Y-77470000D03*
D18*
X158432500Y-82550000D03*
D20*
X156152500Y-80010000D03*
X169602500Y-77470000D03*
%TD*%
D16*
%TO.C,D2*%
X51990625Y-33400000D03*
X51990625Y-30100000D03*
%TD*%
D17*
%TO.C,K22*%
X149225000Y-44450000D03*
D19*
X145415000Y-41910000D03*
D18*
X154305000Y-44450000D03*
X144145000Y-44450000D03*
D19*
X151765000Y-39370000D03*
D20*
X141865000Y-41910000D03*
X155315000Y-39370000D03*
%TD*%
D16*
%TO.C,D49*%
X117871875Y-85850000D03*
X117871875Y-82550000D03*
%TD*%
D18*
%TO.C,K59*%
X22701250Y-101600000D03*
D19*
X30321250Y-96520000D03*
D17*
X27781250Y-101600000D03*
D18*
X32861250Y-101600000D03*
D19*
X23971250Y-99060000D03*
D20*
X20421250Y-99060000D03*
X33871250Y-96520000D03*
%TD*%
D18*
%TO.C,K15*%
X306070000Y-25400000D03*
X316230000Y-25400000D03*
D19*
X307340000Y-22860000D03*
X313690000Y-20320000D03*
D17*
X311150000Y-25400000D03*
D20*
X303790000Y-22860000D03*
X317240000Y-20320000D03*
%TD*%
D16*
%TO.C,D50*%
X136921875Y-85850000D03*
X136921875Y-82550000D03*
%TD*%
D25*
%TO.C,D1*%
X22294326Y-33337500D03*
X18994326Y-33337500D03*
%TD*%
D19*
%TO.C,K6*%
X116840000Y-22860000D03*
D18*
X115570000Y-25400000D03*
D19*
X123190000Y-20320000D03*
D18*
X125730000Y-25400000D03*
D17*
X120650000Y-25400000D03*
D20*
X113290000Y-22860000D03*
X126740000Y-20320000D03*
%TD*%
D17*
%TO.C,K55*%
X239712500Y-82550000D03*
D18*
X234632500Y-82550000D03*
D19*
X235902500Y-80010000D03*
X242252500Y-77470000D03*
D18*
X244792500Y-82550000D03*
D20*
X232352500Y-80010000D03*
X245802500Y-77470000D03*
%TD*%
D16*
%TO.C,D38*%
X165496875Y-66737500D03*
X165496875Y-63437500D03*
%TD*%
%TO.C,D36*%
X127396875Y-66737500D03*
X127396875Y-63437500D03*
%TD*%
D19*
%TO.C,K9*%
X180340000Y-20320000D03*
D18*
X172720000Y-25400000D03*
D19*
X173990000Y-22860000D03*
D18*
X182880000Y-25400000D03*
D17*
X177800000Y-25400000D03*
D20*
X170440000Y-22860000D03*
X183890000Y-20320000D03*
%TD*%
D19*
%TO.C,K53*%
X204152500Y-77470000D03*
D17*
X201612500Y-82550000D03*
D19*
X197802500Y-80010000D03*
D18*
X206692500Y-82550000D03*
X196532500Y-82550000D03*
D20*
X194252500Y-80010000D03*
X207702500Y-77470000D03*
%TD*%
%TO.C,RGB3*%
G36*
G01*
X144773750Y-107473350D02*
X144773750Y-107001650D01*
G75*
G02*
X144982900Y-106792500I209150J0D01*
G01*
X145604600Y-106792500D01*
G75*
G02*
X145813750Y-107001650I0J-209150D01*
G01*
X145813750Y-107473350D01*
G75*
G02*
X145604600Y-107682500I-209150J0D01*
G01*
X144982900Y-107682500D01*
G75*
G02*
X144773750Y-107473350I0J209150D01*
G01*
G37*
G36*
G01*
X145423750Y-107460000D02*
X145423750Y-106415000D01*
G75*
G02*
X145646250Y-106192500I222500J0D01*
G01*
X146091250Y-106192500D01*
G75*
G02*
X146313750Y-106415000I0J-222500D01*
G01*
X146313750Y-107460000D01*
G75*
G02*
X146091250Y-107682500I-222500J0D01*
G01*
X145646250Y-107682500D01*
G75*
G02*
X145423750Y-107460000I0J222500D01*
G01*
G37*
G36*
G01*
X144773750Y-105723350D02*
X144773750Y-105251650D01*
G75*
G02*
X144982900Y-105042500I209150J0D01*
G01*
X145604600Y-105042500D01*
G75*
G02*
X145813750Y-105251650I0J-209150D01*
G01*
X145813750Y-105723350D01*
G75*
G02*
X145604600Y-105932500I-209150J0D01*
G01*
X144982900Y-105932500D01*
G75*
G02*
X144773750Y-105723350I0J209150D01*
G01*
G37*
G36*
G01*
X146311250Y-105817475D02*
X146311250Y-105257525D01*
G75*
G02*
X146526275Y-105042500I215025J0D01*
G01*
X147011225Y-105042500D01*
G75*
G02*
X147226250Y-105257525I0J-215025D01*
G01*
X147226250Y-105817475D01*
G75*
G02*
X147011225Y-106032500I-215025J0D01*
G01*
X146526275Y-106032500D01*
G75*
G02*
X146311250Y-105817475I0J215025D01*
G01*
G37*
G36*
G01*
X145273750Y-105911559D02*
X145273750Y-105063441D01*
G75*
G02*
X145294691Y-105042500I20941J0D01*
G01*
X146892809Y-105042500D01*
G75*
G02*
X146913750Y-105063441I0J-20941D01*
G01*
X146913750Y-105911559D01*
G75*
G02*
X146892809Y-105932500I-20941J0D01*
G01*
X145294691Y-105932500D01*
G75*
G02*
X145273750Y-105911559I0J20941D01*
G01*
G37*
G36*
G01*
X147578750Y-105820670D02*
X147578750Y-105254330D01*
G75*
G02*
X147790580Y-105042500I211830J0D01*
G01*
X148056920Y-105042500D01*
G75*
G02*
X148268750Y-105254330I0J-211830D01*
G01*
X148268750Y-105820670D01*
G75*
G02*
X148056920Y-106032500I-211830J0D01*
G01*
X147790580Y-106032500D01*
G75*
G02*
X147578750Y-105820670I0J211830D01*
G01*
G37*
G36*
G01*
X147873750Y-105723350D02*
X147873750Y-105251650D01*
G75*
G02*
X148082900Y-105042500I209150J0D01*
G01*
X148704600Y-105042500D01*
G75*
G02*
X148913750Y-105251650I0J-209150D01*
G01*
X148913750Y-105723350D01*
G75*
G02*
X148704600Y-105932500I-209150J0D01*
G01*
X148082900Y-105932500D01*
G75*
G02*
X147873750Y-105723350I0J209150D01*
G01*
G37*
G36*
G01*
X146673750Y-107481100D02*
X146673750Y-106603900D01*
G75*
G02*
X146880150Y-106397500I206400J0D01*
G01*
X148057350Y-106397500D01*
G75*
G02*
X148263750Y-106603900I0J-206400D01*
G01*
X148263750Y-107481100D01*
G75*
G02*
X148057350Y-107687500I-206400J0D01*
G01*
X146880150Y-107687500D01*
G75*
G02*
X146673750Y-107481100I0J206400D01*
G01*
G37*
G36*
G01*
X147873750Y-107473350D02*
X147873750Y-107001650D01*
G75*
G02*
X148082900Y-106792500I209150J0D01*
G01*
X148704600Y-106792500D01*
G75*
G02*
X148913750Y-107001650I0J-209150D01*
G01*
X148913750Y-107473350D01*
G75*
G02*
X148704600Y-107682500I-209150J0D01*
G01*
X148082900Y-107682500D01*
G75*
G02*
X147873750Y-107473350I0J209150D01*
G01*
G37*
%TD*%
D19*
%TO.C,K31*%
X28733750Y-60960000D03*
D18*
X37623750Y-63500000D03*
D17*
X32543750Y-63500000D03*
D19*
X35083750Y-58420000D03*
D18*
X27463750Y-63500000D03*
D20*
X25183750Y-60960000D03*
X38633750Y-58420000D03*
%TD*%
D16*
%TO.C,D46*%
X60721875Y-85850000D03*
X60721875Y-82550000D03*
%TD*%
D25*
%TO.C,D16*%
X22859000Y-39116000D03*
X19559000Y-39116000D03*
%TD*%
D16*
%TO.C,D68*%
X51850800Y-83819000D03*
X51850800Y-80519000D03*
%TD*%
%TO.C,R4*%
G36*
G01*
X57658950Y-80744000D02*
X58571450Y-80744000D01*
G75*
G02*
X58815200Y-80987750I0J-243750D01*
G01*
X58815200Y-81475250D01*
G75*
G02*
X58571450Y-81719000I-243750J0D01*
G01*
X57658950Y-81719000D01*
G75*
G02*
X57415200Y-81475250I0J243750D01*
G01*
X57415200Y-80987750D01*
G75*
G02*
X57658950Y-80744000I243750J0D01*
G01*
G37*
G36*
G01*
X57658950Y-82619000D02*
X58571450Y-82619000D01*
G75*
G02*
X58815200Y-82862750I0J-243750D01*
G01*
X58815200Y-83350250D01*
G75*
G02*
X58571450Y-83594000I-243750J0D01*
G01*
X57658950Y-83594000D01*
G75*
G02*
X57415200Y-83350250I0J243750D01*
G01*
X57415200Y-82862750D01*
G75*
G02*
X57658950Y-82619000I243750J0D01*
G01*
G37*
%TD*%
D19*
%TO.C,K28*%
X259715000Y-41910000D03*
D18*
X258445000Y-44450000D03*
X268605000Y-44450000D03*
D17*
X263525000Y-44450000D03*
D19*
X266065000Y-39370000D03*
D20*
X256165000Y-41910000D03*
X269615000Y-39370000D03*
%TD*%
D16*
%TO.C,D39*%
X184546875Y-66737500D03*
X184546875Y-63437500D03*
%TD*%
%TO.C,D58*%
X303609375Y-85850000D03*
X303609375Y-82550000D03*
%TD*%
D19*
%TO.C,K30*%
X307340000Y-41910000D03*
D18*
X316230000Y-44450000D03*
D17*
X311150000Y-44450000D03*
D18*
X306070000Y-44450000D03*
D19*
X313690000Y-39370000D03*
D20*
X303790000Y-41910000D03*
X317240000Y-39370000D03*
%TD*%
%TO.C,R5*%
G36*
G01*
X26258391Y-53099144D02*
X26258391Y-54011644D01*
G75*
G02*
X26014641Y-54255394I-243750J0D01*
G01*
X25527141Y-54255394D01*
G75*
G02*
X25283391Y-54011644I0J243750D01*
G01*
X25283391Y-53099144D01*
G75*
G02*
X25527141Y-52855394I243750J0D01*
G01*
X26014641Y-52855394D01*
G75*
G02*
X26258391Y-53099144I0J-243750D01*
G01*
G37*
G36*
G01*
X24383391Y-53099144D02*
X24383391Y-54011644D01*
G75*
G02*
X24139641Y-54255394I-243750J0D01*
G01*
X23652141Y-54255394D01*
G75*
G02*
X23408391Y-54011644I0J243750D01*
G01*
X23408391Y-53099144D01*
G75*
G02*
X23652141Y-52855394I243750J0D01*
G01*
X24139641Y-52855394D01*
G75*
G02*
X24383391Y-53099144I0J-243750D01*
G01*
G37*
%TD*%
D16*
%TO.C,D14*%
X275034375Y-28637500D03*
X275034375Y-25337500D03*
%TD*%
%TO.C,D53*%
X194071875Y-85850000D03*
X194071875Y-82550000D03*
%TD*%
%TO.C,D26*%
X218043125Y-47687500D03*
X218043125Y-44387500D03*
%TD*%
%TO.C,D19*%
X84693125Y-47687500D03*
X84693125Y-44387500D03*
%TD*%
D18*
%TO.C,K23*%
X173355000Y-44450000D03*
D17*
X168275000Y-44450000D03*
D19*
X164465000Y-41910000D03*
X170815000Y-39370000D03*
D18*
X163195000Y-44450000D03*
D20*
X160915000Y-41910000D03*
X174365000Y-39370000D03*
%TD*%
%TO.C,RGB6*%
G36*
G01*
X247961250Y-107473350D02*
X247961250Y-107001650D01*
G75*
G02*
X248170400Y-106792500I209150J0D01*
G01*
X248792100Y-106792500D01*
G75*
G02*
X249001250Y-107001650I0J-209150D01*
G01*
X249001250Y-107473350D01*
G75*
G02*
X248792100Y-107682500I-209150J0D01*
G01*
X248170400Y-107682500D01*
G75*
G02*
X247961250Y-107473350I0J209150D01*
G01*
G37*
G36*
G01*
X248611250Y-107460000D02*
X248611250Y-106415000D01*
G75*
G02*
X248833750Y-106192500I222500J0D01*
G01*
X249278750Y-106192500D01*
G75*
G02*
X249501250Y-106415000I0J-222500D01*
G01*
X249501250Y-107460000D01*
G75*
G02*
X249278750Y-107682500I-222500J0D01*
G01*
X248833750Y-107682500D01*
G75*
G02*
X248611250Y-107460000I0J222500D01*
G01*
G37*
G36*
G01*
X247961250Y-105723350D02*
X247961250Y-105251650D01*
G75*
G02*
X248170400Y-105042500I209150J0D01*
G01*
X248792100Y-105042500D01*
G75*
G02*
X249001250Y-105251650I0J-209150D01*
G01*
X249001250Y-105723350D01*
G75*
G02*
X248792100Y-105932500I-209150J0D01*
G01*
X248170400Y-105932500D01*
G75*
G02*
X247961250Y-105723350I0J209150D01*
G01*
G37*
G36*
G01*
X249498750Y-105817475D02*
X249498750Y-105257525D01*
G75*
G02*
X249713775Y-105042500I215025J0D01*
G01*
X250198725Y-105042500D01*
G75*
G02*
X250413750Y-105257525I0J-215025D01*
G01*
X250413750Y-105817475D01*
G75*
G02*
X250198725Y-106032500I-215025J0D01*
G01*
X249713775Y-106032500D01*
G75*
G02*
X249498750Y-105817475I0J215025D01*
G01*
G37*
G36*
G01*
X248461250Y-105911559D02*
X248461250Y-105063441D01*
G75*
G02*
X248482191Y-105042500I20941J0D01*
G01*
X250080309Y-105042500D01*
G75*
G02*
X250101250Y-105063441I0J-20941D01*
G01*
X250101250Y-105911559D01*
G75*
G02*
X250080309Y-105932500I-20941J0D01*
G01*
X248482191Y-105932500D01*
G75*
G02*
X248461250Y-105911559I0J20941D01*
G01*
G37*
G36*
G01*
X251061250Y-105723350D02*
X251061250Y-105251650D01*
G75*
G02*
X251270400Y-105042500I209150J0D01*
G01*
X251892100Y-105042500D01*
G75*
G02*
X252101250Y-105251650I0J-209150D01*
G01*
X252101250Y-105723350D01*
G75*
G02*
X251892100Y-105932500I-209150J0D01*
G01*
X251270400Y-105932500D01*
G75*
G02*
X251061250Y-105723350I0J209150D01*
G01*
G37*
G36*
G01*
X250766250Y-105820670D02*
X250766250Y-105254330D01*
G75*
G02*
X250978080Y-105042500I211830J0D01*
G01*
X251244420Y-105042500D01*
G75*
G02*
X251456250Y-105254330I0J-211830D01*
G01*
X251456250Y-105820670D01*
G75*
G02*
X251244420Y-106032500I-211830J0D01*
G01*
X250978080Y-106032500D01*
G75*
G02*
X250766250Y-105820670I0J211830D01*
G01*
G37*
G36*
G01*
X249861250Y-107481100D02*
X249861250Y-106603900D01*
G75*
G02*
X250067650Y-106397500I206400J0D01*
G01*
X251244850Y-106397500D01*
G75*
G02*
X251451250Y-106603900I0J-206400D01*
G01*
X251451250Y-107481100D01*
G75*
G02*
X251244850Y-107687500I-206400J0D01*
G01*
X250067650Y-107687500D01*
G75*
G02*
X249861250Y-107481100I0J206400D01*
G01*
G37*
G36*
G01*
X251061250Y-107473350D02*
X251061250Y-107001650D01*
G75*
G02*
X251270400Y-106792500I209150J0D01*
G01*
X251892100Y-106792500D01*
G75*
G02*
X252101250Y-107001650I0J-209150D01*
G01*
X252101250Y-107473350D01*
G75*
G02*
X251892100Y-107682500I-209150J0D01*
G01*
X251270400Y-107682500D01*
G75*
G02*
X251061250Y-107473350I0J209150D01*
G01*
G37*
%TD*%
D26*
%TO.C,J2*%
X21590000Y-46228000D03*
D27*
X21590000Y-49403000D03*
X21590000Y-52578000D03*
X21590000Y-55753000D03*
%TD*%
D16*
%TO.C,D57*%
X284400625Y-85850000D03*
X284400625Y-82550000D03*
%TD*%
D25*
%TO.C,D29*%
X283590000Y-46736000D03*
X280290000Y-46736000D03*
%TD*%
D19*
%TO.C,K17*%
X50165000Y-41910000D03*
D18*
X48895000Y-44450000D03*
D19*
X56515000Y-39370000D03*
D17*
X53975000Y-44450000D03*
D18*
X59055000Y-44450000D03*
D20*
X46615000Y-41910000D03*
X60065000Y-39370000D03*
%TD*%
D17*
%TO.C,K26*%
X225425000Y-44450000D03*
D18*
X220345000Y-44450000D03*
X230505000Y-44450000D03*
D19*
X221615000Y-41910000D03*
X227965000Y-39370000D03*
D20*
X218065000Y-41910000D03*
X231515000Y-39370000D03*
%TD*%
D25*
%TO.C,D63*%
X210281250Y-96043750D03*
X213581250Y-96043750D03*
%TD*%
D16*
%TO.C,D45*%
X29765625Y-85787500D03*
X29765625Y-82487500D03*
%TD*%
%TO.C,D47*%
X79771875Y-85850000D03*
X79771875Y-82550000D03*
%TD*%
D18*
%TO.C,K61*%
X70326250Y-101600000D03*
X80486250Y-101600000D03*
D17*
X75406250Y-101600000D03*
D19*
X71596250Y-99060000D03*
X77946250Y-96520000D03*
D20*
X68046250Y-99060000D03*
X81496250Y-96520000D03*
%TD*%
%TO.C,RGB2*%
G36*
G01*
X84448750Y-107473350D02*
X84448750Y-107001650D01*
G75*
G02*
X84657900Y-106792500I209150J0D01*
G01*
X85279600Y-106792500D01*
G75*
G02*
X85488750Y-107001650I0J-209150D01*
G01*
X85488750Y-107473350D01*
G75*
G02*
X85279600Y-107682500I-209150J0D01*
G01*
X84657900Y-107682500D01*
G75*
G02*
X84448750Y-107473350I0J209150D01*
G01*
G37*
G36*
G01*
X85098750Y-107460000D02*
X85098750Y-106415000D01*
G75*
G02*
X85321250Y-106192500I222500J0D01*
G01*
X85766250Y-106192500D01*
G75*
G02*
X85988750Y-106415000I0J-222500D01*
G01*
X85988750Y-107460000D01*
G75*
G02*
X85766250Y-107682500I-222500J0D01*
G01*
X85321250Y-107682500D01*
G75*
G02*
X85098750Y-107460000I0J222500D01*
G01*
G37*
G36*
G01*
X85986250Y-105817475D02*
X85986250Y-105257525D01*
G75*
G02*
X86201275Y-105042500I215025J0D01*
G01*
X86686225Y-105042500D01*
G75*
G02*
X86901250Y-105257525I0J-215025D01*
G01*
X86901250Y-105817475D01*
G75*
G02*
X86686225Y-106032500I-215025J0D01*
G01*
X86201275Y-106032500D01*
G75*
G02*
X85986250Y-105817475I0J215025D01*
G01*
G37*
G36*
G01*
X84948750Y-105911559D02*
X84948750Y-105063441D01*
G75*
G02*
X84969691Y-105042500I20941J0D01*
G01*
X86567809Y-105042500D01*
G75*
G02*
X86588750Y-105063441I0J-20941D01*
G01*
X86588750Y-105911559D01*
G75*
G02*
X86567809Y-105932500I-20941J0D01*
G01*
X84969691Y-105932500D01*
G75*
G02*
X84948750Y-105911559I0J20941D01*
G01*
G37*
G36*
G01*
X84448750Y-105723350D02*
X84448750Y-105251650D01*
G75*
G02*
X84657900Y-105042500I209150J0D01*
G01*
X85279600Y-105042500D01*
G75*
G02*
X85488750Y-105251650I0J-209150D01*
G01*
X85488750Y-105723350D01*
G75*
G02*
X85279600Y-105932500I-209150J0D01*
G01*
X84657900Y-105932500D01*
G75*
G02*
X84448750Y-105723350I0J209150D01*
G01*
G37*
G36*
G01*
X87253750Y-105820670D02*
X87253750Y-105254330D01*
G75*
G02*
X87465580Y-105042500I211830J0D01*
G01*
X87731920Y-105042500D01*
G75*
G02*
X87943750Y-105254330I0J-211830D01*
G01*
X87943750Y-105820670D01*
G75*
G02*
X87731920Y-106032500I-211830J0D01*
G01*
X87465580Y-106032500D01*
G75*
G02*
X87253750Y-105820670I0J211830D01*
G01*
G37*
G36*
G01*
X87548750Y-105723350D02*
X87548750Y-105251650D01*
G75*
G02*
X87757900Y-105042500I209150J0D01*
G01*
X88379600Y-105042500D01*
G75*
G02*
X88588750Y-105251650I0J-209150D01*
G01*
X88588750Y-105723350D01*
G75*
G02*
X88379600Y-105932500I-209150J0D01*
G01*
X87757900Y-105932500D01*
G75*
G02*
X87548750Y-105723350I0J209150D01*
G01*
G37*
G36*
G01*
X86348750Y-107481100D02*
X86348750Y-106603900D01*
G75*
G02*
X86555150Y-106397500I206400J0D01*
G01*
X87732350Y-106397500D01*
G75*
G02*
X87938750Y-106603900I0J-206400D01*
G01*
X87938750Y-107481100D01*
G75*
G02*
X87732350Y-107687500I-206400J0D01*
G01*
X86555150Y-107687500D01*
G75*
G02*
X86348750Y-107481100I0J206400D01*
G01*
G37*
G36*
G01*
X87548750Y-107473350D02*
X87548750Y-107001650D01*
G75*
G02*
X87757900Y-106792500I209150J0D01*
G01*
X88379600Y-106792500D01*
G75*
G02*
X88588750Y-107001650I0J-209150D01*
G01*
X88588750Y-107473350D01*
G75*
G02*
X88379600Y-107682500I-209150J0D01*
G01*
X87757900Y-107682500D01*
G75*
G02*
X87548750Y-107473350I0J209150D01*
G01*
G37*
%TD*%
D28*
%TO.C,U4*%
X55184000Y-105199000D03*
X56134000Y-105199000D03*
X57084000Y-105199000D03*
X57084000Y-107399000D03*
X55184000Y-107399000D03*
%TD*%
D19*
%TO.C,K5*%
X97790000Y-22860000D03*
D18*
X106680000Y-25400000D03*
X96520000Y-25400000D03*
D17*
X101600000Y-25400000D03*
D19*
X104140000Y-20320000D03*
D20*
X94240000Y-22860000D03*
X107690000Y-20320000D03*
%TD*%
D16*
%TO.C,D56*%
X258365625Y-85850000D03*
X258365625Y-82550000D03*
%TD*%
D18*
%TO.C,K29*%
X292417500Y-44450000D03*
D19*
X283527500Y-41910000D03*
D18*
X282257500Y-44450000D03*
D17*
X287337500Y-44450000D03*
D19*
X289877500Y-39370000D03*
D29*
X280193750Y-41910000D03*
D20*
X293427500Y-39370000D03*
%TD*%
%TO.C,R3*%
G36*
G01*
X41731250Y-24460500D02*
X40818750Y-24460500D01*
G75*
G02*
X40575000Y-24216750I0J243750D01*
G01*
X40575000Y-23729250D01*
G75*
G02*
X40818750Y-23485500I243750J0D01*
G01*
X41731250Y-23485500D01*
G75*
G02*
X41975000Y-23729250I0J-243750D01*
G01*
X41975000Y-24216750D01*
G75*
G02*
X41731250Y-24460500I-243750J0D01*
G01*
G37*
G36*
G01*
X41731250Y-22585500D02*
X40818750Y-22585500D01*
G75*
G02*
X40575000Y-22341750I0J243750D01*
G01*
X40575000Y-21854250D01*
G75*
G02*
X40818750Y-21610500I243750J0D01*
G01*
X41731250Y-21610500D01*
G75*
G02*
X41975000Y-21854250I0J-243750D01*
G01*
X41975000Y-22341750D01*
G75*
G02*
X41731250Y-22585500I-243750J0D01*
G01*
G37*
%TD*%
%TO.C,C15*%
G36*
G01*
X192837750Y-104874000D02*
X193750250Y-104874000D01*
G75*
G02*
X193994000Y-105117750I0J-243750D01*
G01*
X193994000Y-105605250D01*
G75*
G02*
X193750250Y-105849000I-243750J0D01*
G01*
X192837750Y-105849000D01*
G75*
G02*
X192594000Y-105605250I0J243750D01*
G01*
X192594000Y-105117750D01*
G75*
G02*
X192837750Y-104874000I243750J0D01*
G01*
G37*
G36*
G01*
X192837750Y-106749000D02*
X193750250Y-106749000D01*
G75*
G02*
X193994000Y-106992750I0J-243750D01*
G01*
X193994000Y-107480250D01*
G75*
G02*
X193750250Y-107724000I-243750J0D01*
G01*
X192837750Y-107724000D01*
G75*
G02*
X192594000Y-107480250I0J243750D01*
G01*
X192594000Y-106992750D01*
G75*
G02*
X192837750Y-106749000I243750J0D01*
G01*
G37*
%TD*%
D19*
%TO.C,K47*%
X89852500Y-77470000D03*
X83502500Y-80010000D03*
D17*
X87312500Y-82550000D03*
D18*
X82232500Y-82550000D03*
X92392500Y-82550000D03*
D20*
X79952500Y-80010000D03*
X93402500Y-77470000D03*
%TD*%
D16*
%TO.C,D21*%
X122793125Y-47687500D03*
X122793125Y-44387500D03*
%TD*%
D18*
%TO.C,K64*%
X254317500Y-101600000D03*
D19*
X245427500Y-99060000D03*
X251777500Y-96520000D03*
D18*
X244157500Y-101600000D03*
D17*
X249237500Y-101600000D03*
D20*
X241877500Y-99060000D03*
X255327500Y-96520000D03*
%TD*%
D19*
%TO.C,K2*%
X41910000Y-30480000D03*
D18*
X49530000Y-25400000D03*
X39370000Y-25400000D03*
D19*
X48260000Y-27940000D03*
D17*
X44450000Y-25400000D03*
D20*
X51810000Y-27940000D03*
X38360000Y-30480000D03*
%TD*%
D17*
%TO.C,K42*%
X249237500Y-63500000D03*
D18*
X254317500Y-63500000D03*
D19*
X245427500Y-60960000D03*
D18*
X244157500Y-63500000D03*
D19*
X251777500Y-58420000D03*
D20*
X241877500Y-60960000D03*
X255327500Y-58420000D03*
%TD*%
D16*
%TO.C,D23*%
X160893125Y-47687500D03*
X160893125Y-44387500D03*
%TD*%
%TO.C,RGB5*%
G36*
G01*
X187636250Y-107473350D02*
X187636250Y-107001650D01*
G75*
G02*
X187845400Y-106792500I209150J0D01*
G01*
X188467100Y-106792500D01*
G75*
G02*
X188676250Y-107001650I0J-209150D01*
G01*
X188676250Y-107473350D01*
G75*
G02*
X188467100Y-107682500I-209150J0D01*
G01*
X187845400Y-107682500D01*
G75*
G02*
X187636250Y-107473350I0J209150D01*
G01*
G37*
G36*
G01*
X188286250Y-107460000D02*
X188286250Y-106415000D01*
G75*
G02*
X188508750Y-106192500I222500J0D01*
G01*
X188953750Y-106192500D01*
G75*
G02*
X189176250Y-106415000I0J-222500D01*
G01*
X189176250Y-107460000D01*
G75*
G02*
X188953750Y-107682500I-222500J0D01*
G01*
X188508750Y-107682500D01*
G75*
G02*
X188286250Y-107460000I0J222500D01*
G01*
G37*
G36*
G01*
X187636250Y-105723350D02*
X187636250Y-105251650D01*
G75*
G02*
X187845400Y-105042500I209150J0D01*
G01*
X188467100Y-105042500D01*
G75*
G02*
X188676250Y-105251650I0J-209150D01*
G01*
X188676250Y-105723350D01*
G75*
G02*
X188467100Y-105932500I-209150J0D01*
G01*
X187845400Y-105932500D01*
G75*
G02*
X187636250Y-105723350I0J209150D01*
G01*
G37*
G36*
G01*
X188136250Y-105911559D02*
X188136250Y-105063441D01*
G75*
G02*
X188157191Y-105042500I20941J0D01*
G01*
X189755309Y-105042500D01*
G75*
G02*
X189776250Y-105063441I0J-20941D01*
G01*
X189776250Y-105911559D01*
G75*
G02*
X189755309Y-105932500I-20941J0D01*
G01*
X188157191Y-105932500D01*
G75*
G02*
X188136250Y-105911559I0J20941D01*
G01*
G37*
G36*
G01*
X189173750Y-105817475D02*
X189173750Y-105257525D01*
G75*
G02*
X189388775Y-105042500I215025J0D01*
G01*
X189873725Y-105042500D01*
G75*
G02*
X190088750Y-105257525I0J-215025D01*
G01*
X190088750Y-105817475D01*
G75*
G02*
X189873725Y-106032500I-215025J0D01*
G01*
X189388775Y-106032500D01*
G75*
G02*
X189173750Y-105817475I0J215025D01*
G01*
G37*
G36*
G01*
X190441250Y-105820670D02*
X190441250Y-105254330D01*
G75*
G02*
X190653080Y-105042500I211830J0D01*
G01*
X190919420Y-105042500D01*
G75*
G02*
X191131250Y-105254330I0J-211830D01*
G01*
X191131250Y-105820670D01*
G75*
G02*
X190919420Y-106032500I-211830J0D01*
G01*
X190653080Y-106032500D01*
G75*
G02*
X190441250Y-105820670I0J211830D01*
G01*
G37*
G36*
G01*
X190736250Y-105723350D02*
X190736250Y-105251650D01*
G75*
G02*
X190945400Y-105042500I209150J0D01*
G01*
X191567100Y-105042500D01*
G75*
G02*
X191776250Y-105251650I0J-209150D01*
G01*
X191776250Y-105723350D01*
G75*
G02*
X191567100Y-105932500I-209150J0D01*
G01*
X190945400Y-105932500D01*
G75*
G02*
X190736250Y-105723350I0J209150D01*
G01*
G37*
G36*
G01*
X190736250Y-107473350D02*
X190736250Y-107001650D01*
G75*
G02*
X190945400Y-106792500I209150J0D01*
G01*
X191567100Y-106792500D01*
G75*
G02*
X191776250Y-107001650I0J-209150D01*
G01*
X191776250Y-107473350D01*
G75*
G02*
X191567100Y-107682500I-209150J0D01*
G01*
X190945400Y-107682500D01*
G75*
G02*
X190736250Y-107473350I0J209150D01*
G01*
G37*
G36*
G01*
X189536250Y-107481100D02*
X189536250Y-106603900D01*
G75*
G02*
X189742650Y-106397500I206400J0D01*
G01*
X190919850Y-106397500D01*
G75*
G02*
X191126250Y-106603900I0J-206400D01*
G01*
X191126250Y-107481100D01*
G75*
G02*
X190919850Y-107687500I-206400J0D01*
G01*
X189742650Y-107687500D01*
G75*
G02*
X189536250Y-107481100I0J206400D01*
G01*
G37*
%TD*%
%TO.C,C19*%
G36*
G01*
X55626950Y-80744000D02*
X56539450Y-80744000D01*
G75*
G02*
X56783200Y-80987750I0J-243750D01*
G01*
X56783200Y-81475250D01*
G75*
G02*
X56539450Y-81719000I-243750J0D01*
G01*
X55626950Y-81719000D01*
G75*
G02*
X55383200Y-81475250I0J243750D01*
G01*
X55383200Y-80987750D01*
G75*
G02*
X55626950Y-80744000I243750J0D01*
G01*
G37*
G36*
G01*
X55626950Y-82619000D02*
X56539450Y-82619000D01*
G75*
G02*
X56783200Y-82862750I0J-243750D01*
G01*
X56783200Y-83350250D01*
G75*
G02*
X56539450Y-83594000I-243750J0D01*
G01*
X55626950Y-83594000D01*
G75*
G02*
X55383200Y-83350250I0J243750D01*
G01*
X55383200Y-82862750D01*
G75*
G02*
X55626950Y-82619000I243750J0D01*
G01*
G37*
%TD*%
D19*
%TO.C,K38*%
X169227500Y-60960000D03*
D17*
X173037500Y-63500000D03*
D18*
X178117500Y-63500000D03*
D19*
X175577500Y-58420000D03*
D18*
X167957500Y-63500000D03*
D20*
X165677500Y-60960000D03*
X179127500Y-58420000D03*
%TD*%
D18*
%TO.C,K20*%
X106045000Y-44450000D03*
D17*
X111125000Y-44450000D03*
D19*
X113665000Y-39370000D03*
D18*
X116205000Y-44450000D03*
D19*
X107315000Y-41910000D03*
D20*
X103765000Y-41910000D03*
X117215000Y-39370000D03*
%TD*%
D18*
%TO.C,K52*%
X187642500Y-82550000D03*
X177482500Y-82550000D03*
D19*
X185102500Y-77470000D03*
D17*
X182562500Y-82550000D03*
D19*
X178752500Y-80010000D03*
D20*
X175202500Y-80010000D03*
X188652500Y-77470000D03*
%TD*%
D16*
%TO.C,D59*%
X20240625Y-92806250D03*
X20240625Y-96106250D03*
%TD*%
%TO.C,D15*%
X303609375Y-28637500D03*
X303609375Y-25337500D03*
%TD*%
%TO.C,C17*%
G36*
G01*
X278562750Y-105001000D02*
X279475250Y-105001000D01*
G75*
G02*
X279719000Y-105244750I0J-243750D01*
G01*
X279719000Y-105732250D01*
G75*
G02*
X279475250Y-105976000I-243750J0D01*
G01*
X278562750Y-105976000D01*
G75*
G02*
X278319000Y-105732250I0J243750D01*
G01*
X278319000Y-105244750D01*
G75*
G02*
X278562750Y-105001000I243750J0D01*
G01*
G37*
G36*
G01*
X278562750Y-106876000D02*
X279475250Y-106876000D01*
G75*
G02*
X279719000Y-107119750I0J-243750D01*
G01*
X279719000Y-107607250D01*
G75*
G02*
X279475250Y-107851000I-243750J0D01*
G01*
X278562750Y-107851000D01*
G75*
G02*
X278319000Y-107607250I0J243750D01*
G01*
X278319000Y-107119750D01*
G75*
G02*
X278562750Y-106876000I243750J0D01*
G01*
G37*
%TD*%
D17*
%TO.C,K27*%
X244475000Y-44450000D03*
D19*
X240665000Y-41910000D03*
D18*
X249555000Y-44450000D03*
X239395000Y-44450000D03*
D19*
X247015000Y-39370000D03*
D20*
X237115000Y-41910000D03*
X250565000Y-39370000D03*
%TD*%
D19*
%TO.C,K4*%
X85090000Y-20320000D03*
D18*
X77470000Y-25400000D03*
D17*
X82550000Y-25400000D03*
D18*
X87630000Y-25400000D03*
D19*
X78740000Y-22860000D03*
D20*
X75190000Y-22860000D03*
X88640000Y-20320000D03*
%TD*%
%TO.C,C10*%
G36*
G01*
X40586600Y-20674650D02*
X40586600Y-19762150D01*
G75*
G02*
X40830350Y-19518400I243750J0D01*
G01*
X41317850Y-19518400D01*
G75*
G02*
X41561600Y-19762150I0J-243750D01*
G01*
X41561600Y-20674650D01*
G75*
G02*
X41317850Y-20918400I-243750J0D01*
G01*
X40830350Y-20918400D01*
G75*
G02*
X40586600Y-20674650I0J243750D01*
G01*
G37*
G36*
G01*
X42461600Y-20674650D02*
X42461600Y-19762150D01*
G75*
G02*
X42705350Y-19518400I243750J0D01*
G01*
X43192850Y-19518400D01*
G75*
G02*
X43436600Y-19762150I0J-243750D01*
G01*
X43436600Y-20674650D01*
G75*
G02*
X43192850Y-20918400I-243750J0D01*
G01*
X42705350Y-20918400D01*
G75*
G02*
X42461600Y-20674650I0J243750D01*
G01*
G37*
%TD*%
D18*
%TO.C,K48*%
X111442500Y-82550000D03*
X101282500Y-82550000D03*
D19*
X102552500Y-80010000D03*
D17*
X106362500Y-82550000D03*
D19*
X108902500Y-77470000D03*
D20*
X99002500Y-80010000D03*
X112452500Y-77470000D03*
%TD*%
D19*
%TO.C,K49*%
X127952500Y-77470000D03*
D18*
X120332500Y-82550000D03*
D17*
X125412500Y-82550000D03*
D19*
X121602500Y-80010000D03*
D18*
X130492500Y-82550000D03*
D20*
X118052500Y-80010000D03*
X131502500Y-77470000D03*
%TD*%
D16*
%TO.C,D12*%
X227409375Y-28637500D03*
X227409375Y-25337500D03*
%TD*%
%TO.C,D42*%
X241696875Y-66737500D03*
X241696875Y-63437500D03*
%TD*%
D30*
%TO.C,S1*%
X54316985Y-71906933D03*
X58016985Y-78106933D03*
X58016985Y-71906933D03*
X54316985Y-78106933D03*
%TD*%
D18*
%TO.C,K41*%
X235267500Y-63500000D03*
D17*
X230187500Y-63500000D03*
D19*
X226377500Y-60960000D03*
D18*
X225107500Y-63500000D03*
D19*
X232727500Y-58420000D03*
D20*
X222827500Y-60960000D03*
X236277500Y-58420000D03*
%TD*%
D18*
%TO.C,K33*%
X82867500Y-63500000D03*
D19*
X73977500Y-60960000D03*
X80327500Y-58420000D03*
D17*
X77787500Y-63500000D03*
D18*
X72707500Y-63500000D03*
D20*
X70427500Y-60960000D03*
X83877500Y-58420000D03*
%TD*%
D18*
%TO.C,K1*%
X20320000Y-25400000D03*
D19*
X29210000Y-27940000D03*
D17*
X25400000Y-25400000D03*
D18*
X30480000Y-25400000D03*
D19*
X22860000Y-30480000D03*
D20*
X32760000Y-27940000D03*
X19310000Y-30480000D03*
%TD*%
D11*
%TO.C,ST_SPACE*%
X96805750Y-93345000D03*
D12*
X196881750Y-108585000D03*
D11*
X196881750Y-93345000D03*
D12*
X96805750Y-108585000D03*
%TD*%
D16*
%TO.C,D48*%
X98821875Y-85850000D03*
X98821875Y-82550000D03*
%TD*%
%TO.C,D69*%
X28933767Y-36702000D03*
X28933767Y-33402000D03*
%TD*%
D19*
%TO.C,K32*%
X54927500Y-60960000D03*
D18*
X63817500Y-63500000D03*
X53657500Y-63500000D03*
D19*
X61277500Y-58420000D03*
D17*
X58737500Y-63500000D03*
D20*
X51377500Y-60960000D03*
X64827500Y-58420000D03*
%TD*%
D16*
%TO.C,D28*%
X256143125Y-47687500D03*
X256143125Y-44387500D03*
%TD*%
D18*
%TO.C,K19*%
X86995000Y-44450000D03*
D17*
X92075000Y-44450000D03*
D19*
X94615000Y-39370000D03*
D18*
X97155000Y-44450000D03*
D19*
X88265000Y-41910000D03*
D20*
X84715000Y-41910000D03*
X98165000Y-39370000D03*
%TD*%
D19*
%TO.C,K18*%
X75565000Y-39370000D03*
D18*
X67945000Y-44450000D03*
D17*
X73025000Y-44450000D03*
D19*
X69215000Y-41910000D03*
D18*
X78105000Y-44450000D03*
D20*
X65665000Y-41910000D03*
X79115000Y-39370000D03*
%TD*%
D25*
%TO.C,D65*%
X262668750Y-96043750D03*
X265968750Y-96043750D03*
%TD*%
%TO.C,C3*%
G36*
G01*
X37493000Y-51486750D02*
X37493000Y-52399250D01*
G75*
G02*
X37249250Y-52643000I-243750J0D01*
G01*
X36761750Y-52643000D01*
G75*
G02*
X36518000Y-52399250I0J243750D01*
G01*
X36518000Y-51486750D01*
G75*
G02*
X36761750Y-51243000I243750J0D01*
G01*
X37249250Y-51243000D01*
G75*
G02*
X37493000Y-51486750I0J-243750D01*
G01*
G37*
G36*
G01*
X35618000Y-51486750D02*
X35618000Y-52399250D01*
G75*
G02*
X35374250Y-52643000I-243750J0D01*
G01*
X34886750Y-52643000D01*
G75*
G02*
X34643000Y-52399250I0J243750D01*
G01*
X34643000Y-51486750D01*
G75*
G02*
X34886750Y-51243000I243750J0D01*
G01*
X35374250Y-51243000D01*
G75*
G02*
X35618000Y-51486750I0J-243750D01*
G01*
G37*
%TD*%
D19*
%TO.C,K25*%
X202565000Y-41910000D03*
D18*
X201295000Y-44450000D03*
D17*
X206375000Y-44450000D03*
D18*
X211455000Y-44450000D03*
D19*
X208915000Y-39370000D03*
D20*
X199015000Y-41910000D03*
X212465000Y-39370000D03*
%TD*%
D16*
%TO.C,D20*%
X103743125Y-47687500D03*
X103743125Y-44387500D03*
%TD*%
%TO.C,F1*%
G36*
G01*
X30733125Y-33085550D02*
X31983125Y-33085550D01*
G75*
G02*
X32233125Y-33335550I0J-250000D01*
G01*
X32233125Y-34085550D01*
G75*
G02*
X31983125Y-34335550I-250000J0D01*
G01*
X30733125Y-34335550D01*
G75*
G02*
X30483125Y-34085550I0J250000D01*
G01*
X30483125Y-33335550D01*
G75*
G02*
X30733125Y-33085550I250000J0D01*
G01*
G37*
G36*
G01*
X30733125Y-35885550D02*
X31983125Y-35885550D01*
G75*
G02*
X32233125Y-36135550I0J-250000D01*
G01*
X32233125Y-36885550D01*
G75*
G02*
X31983125Y-37135550I-250000J0D01*
G01*
X30733125Y-37135550D01*
G75*
G02*
X30483125Y-36885550I0J250000D01*
G01*
X30483125Y-36135550D01*
G75*
G02*
X30733125Y-35885550I250000J0D01*
G01*
G37*
%TD*%
%TO.C,RGB7*%
G36*
G01*
X274011250Y-107460000D02*
X274011250Y-106415000D01*
G75*
G02*
X274233750Y-106192500I222500J0D01*
G01*
X274678750Y-106192500D01*
G75*
G02*
X274901250Y-106415000I0J-222500D01*
G01*
X274901250Y-107460000D01*
G75*
G02*
X274678750Y-107682500I-222500J0D01*
G01*
X274233750Y-107682500D01*
G75*
G02*
X274011250Y-107460000I0J222500D01*
G01*
G37*
G36*
G01*
X273361250Y-107473350D02*
X273361250Y-107001650D01*
G75*
G02*
X273570400Y-106792500I209150J0D01*
G01*
X274192100Y-106792500D01*
G75*
G02*
X274401250Y-107001650I0J-209150D01*
G01*
X274401250Y-107473350D01*
G75*
G02*
X274192100Y-107682500I-209150J0D01*
G01*
X273570400Y-107682500D01*
G75*
G02*
X273361250Y-107473350I0J209150D01*
G01*
G37*
G36*
G01*
X273861250Y-105911559D02*
X273861250Y-105063441D01*
G75*
G02*
X273882191Y-105042500I20941J0D01*
G01*
X275480309Y-105042500D01*
G75*
G02*
X275501250Y-105063441I0J-20941D01*
G01*
X275501250Y-105911559D01*
G75*
G02*
X275480309Y-105932500I-20941J0D01*
G01*
X273882191Y-105932500D01*
G75*
G02*
X273861250Y-105911559I0J20941D01*
G01*
G37*
G36*
G01*
X274898750Y-105817475D02*
X274898750Y-105257525D01*
G75*
G02*
X275113775Y-105042500I215025J0D01*
G01*
X275598725Y-105042500D01*
G75*
G02*
X275813750Y-105257525I0J-215025D01*
G01*
X275813750Y-105817475D01*
G75*
G02*
X275598725Y-106032500I-215025J0D01*
G01*
X275113775Y-106032500D01*
G75*
G02*
X274898750Y-105817475I0J215025D01*
G01*
G37*
G36*
G01*
X273361250Y-105723350D02*
X273361250Y-105251650D01*
G75*
G02*
X273570400Y-105042500I209150J0D01*
G01*
X274192100Y-105042500D01*
G75*
G02*
X274401250Y-105251650I0J-209150D01*
G01*
X274401250Y-105723350D01*
G75*
G02*
X274192100Y-105932500I-209150J0D01*
G01*
X273570400Y-105932500D01*
G75*
G02*
X273361250Y-105723350I0J209150D01*
G01*
G37*
G36*
G01*
X276166250Y-105820670D02*
X276166250Y-105254330D01*
G75*
G02*
X276378080Y-105042500I211830J0D01*
G01*
X276644420Y-105042500D01*
G75*
G02*
X276856250Y-105254330I0J-211830D01*
G01*
X276856250Y-105820670D01*
G75*
G02*
X276644420Y-106032500I-211830J0D01*
G01*
X276378080Y-106032500D01*
G75*
G02*
X276166250Y-105820670I0J211830D01*
G01*
G37*
G36*
G01*
X276461250Y-105723350D02*
X276461250Y-105251650D01*
G75*
G02*
X276670400Y-105042500I209150J0D01*
G01*
X277292100Y-105042500D01*
G75*
G02*
X277501250Y-105251650I0J-209150D01*
G01*
X277501250Y-105723350D01*
G75*
G02*
X277292100Y-105932500I-209150J0D01*
G01*
X276670400Y-105932500D01*
G75*
G02*
X276461250Y-105723350I0J209150D01*
G01*
G37*
G36*
G01*
X275261250Y-107481100D02*
X275261250Y-106603900D01*
G75*
G02*
X275467650Y-106397500I206400J0D01*
G01*
X276644850Y-106397500D01*
G75*
G02*
X276851250Y-106603900I0J-206400D01*
G01*
X276851250Y-107481100D01*
G75*
G02*
X276644850Y-107687500I-206400J0D01*
G01*
X275467650Y-107687500D01*
G75*
G02*
X275261250Y-107481100I0J206400D01*
G01*
G37*
G36*
G01*
X276461250Y-107473350D02*
X276461250Y-107001650D01*
G75*
G02*
X276670400Y-106792500I209150J0D01*
G01*
X277292100Y-106792500D01*
G75*
G02*
X277501250Y-107001650I0J-209150D01*
G01*
X277501250Y-107473350D01*
G75*
G02*
X277292100Y-107682500I-209150J0D01*
G01*
X276670400Y-107682500D01*
G75*
G02*
X276461250Y-107473350I0J209150D01*
G01*
G37*
%TD*%
D19*
%TO.C,K50*%
X147002500Y-77470000D03*
X140652500Y-80010000D03*
D17*
X144462500Y-82550000D03*
D18*
X139382500Y-82550000D03*
X149542500Y-82550000D03*
D20*
X137102500Y-80010000D03*
X150552500Y-77470000D03*
%TD*%
D18*
%TO.C,K45*%
X32226250Y-82550000D03*
D17*
X37306250Y-82550000D03*
D18*
X42386250Y-82550000D03*
D19*
X33496250Y-80010000D03*
X39846250Y-77470000D03*
D20*
X29946250Y-80010000D03*
X43396250Y-77470000D03*
%TD*%
D19*
%TO.C,K36*%
X137477500Y-58420000D03*
D18*
X140017500Y-63500000D03*
D19*
X131127500Y-60960000D03*
D18*
X129857500Y-63500000D03*
D17*
X134937500Y-63500000D03*
D20*
X127577500Y-60960000D03*
X141027500Y-58420000D03*
%TD*%
D31*
%TO.C,Q1*%
X49802800Y-81219000D03*
X49802800Y-83119000D03*
X47802800Y-82169000D03*
%TD*%
D19*
%TO.C,K39*%
X188277500Y-60960000D03*
D18*
X197167500Y-63500000D03*
X187007500Y-63500000D03*
D19*
X194627500Y-58420000D03*
D17*
X192087500Y-63500000D03*
D20*
X184727500Y-60960000D03*
X198177500Y-58420000D03*
%TD*%
D16*
%TO.C,D52*%
X175021875Y-85850000D03*
X175021875Y-82550000D03*
%TD*%
%TO.C,D22*%
X141843125Y-47687500D03*
X141843125Y-44387500D03*
%TD*%
D18*
%TO.C,K3*%
X68580000Y-25400000D03*
D17*
X63500000Y-25400000D03*
D18*
X58420000Y-25400000D03*
D19*
X59690000Y-22860000D03*
X66040000Y-20320000D03*
D20*
X56140000Y-22860000D03*
X69590000Y-20320000D03*
%TD*%
D25*
%TO.C,D62*%
X136462500Y-96043750D03*
X139762500Y-96043750D03*
%TD*%
%TO.C,R6*%
G36*
G01*
X23425600Y-56589438D02*
X23425600Y-55676938D01*
G75*
G02*
X23669350Y-55433188I243750J0D01*
G01*
X24156850Y-55433188D01*
G75*
G02*
X24400600Y-55676938I0J-243750D01*
G01*
X24400600Y-56589438D01*
G75*
G02*
X24156850Y-56833188I-243750J0D01*
G01*
X23669350Y-56833188D01*
G75*
G02*
X23425600Y-56589438I0J243750D01*
G01*
G37*
G36*
G01*
X25300600Y-56589438D02*
X25300600Y-55676938D01*
G75*
G02*
X25544350Y-55433188I243750J0D01*
G01*
X26031850Y-55433188D01*
G75*
G02*
X26275600Y-55676938I0J-243750D01*
G01*
X26275600Y-56589438D01*
G75*
G02*
X26031850Y-56833188I-243750J0D01*
G01*
X25544350Y-56833188D01*
G75*
G02*
X25300600Y-56589438I0J243750D01*
G01*
G37*
%TD*%
D18*
%TO.C,K37*%
X159067500Y-63500000D03*
X148907500Y-63500000D03*
D17*
X153987500Y-63500000D03*
D19*
X156527500Y-58420000D03*
X150177500Y-60960000D03*
D29*
X146843750Y-60960000D03*
D20*
X160077500Y-58420000D03*
%TD*%
%TO.C,C1*%
G36*
G01*
X33093199Y-36905250D02*
X33093199Y-35992750D01*
G75*
G02*
X33336949Y-35749000I243750J0D01*
G01*
X33824449Y-35749000D01*
G75*
G02*
X34068199Y-35992750I0J-243750D01*
G01*
X34068199Y-36905250D01*
G75*
G02*
X33824449Y-37149000I-243750J0D01*
G01*
X33336949Y-37149000D01*
G75*
G02*
X33093199Y-36905250I0J243750D01*
G01*
G37*
G36*
G01*
X34968199Y-36905250D02*
X34968199Y-35992750D01*
G75*
G02*
X35211949Y-35749000I243750J0D01*
G01*
X35699449Y-35749000D01*
G75*
G02*
X35943199Y-35992750I0J-243750D01*
G01*
X35943199Y-36905250D01*
G75*
G02*
X35699449Y-37149000I-243750J0D01*
G01*
X35211949Y-37149000D01*
G75*
G02*
X34968199Y-36905250I0J243750D01*
G01*
G37*
%TD*%
D16*
%TO.C,D18*%
X65643125Y-47687500D03*
X65643125Y-44387500D03*
%TD*%
D18*
%TO.C,K60*%
X56673750Y-101600000D03*
D19*
X54133750Y-96520000D03*
D17*
X51593750Y-101600000D03*
D18*
X46513750Y-101600000D03*
D19*
X47783750Y-99060000D03*
D29*
X44450000Y-99060000D03*
D20*
X57683750Y-96520000D03*
%TD*%
D18*
%TO.C,K40*%
X216217500Y-63500000D03*
D19*
X213677500Y-58420000D03*
D17*
X211137500Y-63500000D03*
D18*
X206057500Y-63500000D03*
D19*
X207327500Y-60960000D03*
D20*
X203777500Y-60960000D03*
X217227500Y-58420000D03*
%TD*%
D16*
%TO.C,D11*%
X208359375Y-28637500D03*
X208359375Y-25337500D03*
%TD*%
%TO.C,RGB4*%
G36*
G01*
X166855000Y-107460000D02*
X166855000Y-106415000D01*
G75*
G02*
X167077500Y-106192500I222500J0D01*
G01*
X167522500Y-106192500D01*
G75*
G02*
X167745000Y-106415000I0J-222500D01*
G01*
X167745000Y-107460000D01*
G75*
G02*
X167522500Y-107682500I-222500J0D01*
G01*
X167077500Y-107682500D01*
G75*
G02*
X166855000Y-107460000I0J222500D01*
G01*
G37*
G36*
G01*
X166205000Y-107473350D02*
X166205000Y-107001650D01*
G75*
G02*
X166414150Y-106792500I209150J0D01*
G01*
X167035850Y-106792500D01*
G75*
G02*
X167245000Y-107001650I0J-209150D01*
G01*
X167245000Y-107473350D01*
G75*
G02*
X167035850Y-107682500I-209150J0D01*
G01*
X166414150Y-107682500D01*
G75*
G02*
X166205000Y-107473350I0J209150D01*
G01*
G37*
G36*
G01*
X166205000Y-105723350D02*
X166205000Y-105251650D01*
G75*
G02*
X166414150Y-105042500I209150J0D01*
G01*
X167035850Y-105042500D01*
G75*
G02*
X167245000Y-105251650I0J-209150D01*
G01*
X167245000Y-105723350D01*
G75*
G02*
X167035850Y-105932500I-209150J0D01*
G01*
X166414150Y-105932500D01*
G75*
G02*
X166205000Y-105723350I0J209150D01*
G01*
G37*
G36*
G01*
X167742500Y-105817475D02*
X167742500Y-105257525D01*
G75*
G02*
X167957525Y-105042500I215025J0D01*
G01*
X168442475Y-105042500D01*
G75*
G02*
X168657500Y-105257525I0J-215025D01*
G01*
X168657500Y-105817475D01*
G75*
G02*
X168442475Y-106032500I-215025J0D01*
G01*
X167957525Y-106032500D01*
G75*
G02*
X167742500Y-105817475I0J215025D01*
G01*
G37*
G36*
G01*
X166705000Y-105911559D02*
X166705000Y-105063441D01*
G75*
G02*
X166725941Y-105042500I20941J0D01*
G01*
X168324059Y-105042500D01*
G75*
G02*
X168345000Y-105063441I0J-20941D01*
G01*
X168345000Y-105911559D01*
G75*
G02*
X168324059Y-105932500I-20941J0D01*
G01*
X166725941Y-105932500D01*
G75*
G02*
X166705000Y-105911559I0J20941D01*
G01*
G37*
G36*
G01*
X169010000Y-105820670D02*
X169010000Y-105254330D01*
G75*
G02*
X169221830Y-105042500I211830J0D01*
G01*
X169488170Y-105042500D01*
G75*
G02*
X169700000Y-105254330I0J-211830D01*
G01*
X169700000Y-105820670D01*
G75*
G02*
X169488170Y-106032500I-211830J0D01*
G01*
X169221830Y-106032500D01*
G75*
G02*
X169010000Y-105820670I0J211830D01*
G01*
G37*
G36*
G01*
X169305000Y-105723350D02*
X169305000Y-105251650D01*
G75*
G02*
X169514150Y-105042500I209150J0D01*
G01*
X170135850Y-105042500D01*
G75*
G02*
X170345000Y-105251650I0J-209150D01*
G01*
X170345000Y-105723350D01*
G75*
G02*
X170135850Y-105932500I-209150J0D01*
G01*
X169514150Y-105932500D01*
G75*
G02*
X169305000Y-105723350I0J209150D01*
G01*
G37*
G36*
G01*
X169305000Y-107473350D02*
X169305000Y-107001650D01*
G75*
G02*
X169514150Y-106792500I209150J0D01*
G01*
X170135850Y-106792500D01*
G75*
G02*
X170345000Y-107001650I0J-209150D01*
G01*
X170345000Y-107473350D01*
G75*
G02*
X170135850Y-107682500I-209150J0D01*
G01*
X169514150Y-107682500D01*
G75*
G02*
X169305000Y-107473350I0J209150D01*
G01*
G37*
G36*
G01*
X168105000Y-107481100D02*
X168105000Y-106603900D01*
G75*
G02*
X168311400Y-106397500I206400J0D01*
G01*
X169488600Y-106397500D01*
G75*
G02*
X169695000Y-106603900I0J-206400D01*
G01*
X169695000Y-107481100D01*
G75*
G02*
X169488600Y-107687500I-206400J0D01*
G01*
X168311400Y-107687500D01*
G75*
G02*
X168105000Y-107481100I0J206400D01*
G01*
G37*
%TD*%
D25*
%TO.C,D66*%
X281718750Y-96043750D03*
X285018750Y-96043750D03*
%TD*%
%TO.C,C5*%
G36*
G01*
X37511166Y-49454750D02*
X37511166Y-50367250D01*
G75*
G02*
X37267416Y-50611000I-243750J0D01*
G01*
X36779916Y-50611000D01*
G75*
G02*
X36536166Y-50367250I0J243750D01*
G01*
X36536166Y-49454750D01*
G75*
G02*
X36779916Y-49211000I243750J0D01*
G01*
X37267416Y-49211000D01*
G75*
G02*
X37511166Y-49454750I0J-243750D01*
G01*
G37*
G36*
G01*
X35636166Y-49454750D02*
X35636166Y-50367250D01*
G75*
G02*
X35392416Y-50611000I-243750J0D01*
G01*
X34904916Y-50611000D01*
G75*
G02*
X34661166Y-50367250I0J243750D01*
G01*
X34661166Y-49454750D01*
G75*
G02*
X34904916Y-49211000I243750J0D01*
G01*
X35392416Y-49211000D01*
G75*
G02*
X35636166Y-49454750I0J-243750D01*
G01*
G37*
%TD*%
D16*
%TO.C,D34*%
X89296875Y-66737500D03*
X89296875Y-63437500D03*
%TD*%
D19*
%TO.C,K43*%
X276383750Y-60960000D03*
X282733750Y-58420000D03*
D17*
X280193750Y-63500000D03*
D18*
X275113750Y-63500000D03*
X285273750Y-63500000D03*
D20*
X272833750Y-60960000D03*
X286283750Y-58420000D03*
%TD*%
%TO.C,C12*%
G36*
G01*
X89713750Y-105001000D02*
X90626250Y-105001000D01*
G75*
G02*
X90870000Y-105244750I0J-243750D01*
G01*
X90870000Y-105732250D01*
G75*
G02*
X90626250Y-105976000I-243750J0D01*
G01*
X89713750Y-105976000D01*
G75*
G02*
X89470000Y-105732250I0J243750D01*
G01*
X89470000Y-105244750D01*
G75*
G02*
X89713750Y-105001000I243750J0D01*
G01*
G37*
G36*
G01*
X89713750Y-106876000D02*
X90626250Y-106876000D01*
G75*
G02*
X90870000Y-107119750I0J-243750D01*
G01*
X90870000Y-107607250D01*
G75*
G02*
X90626250Y-107851000I-243750J0D01*
G01*
X89713750Y-107851000D01*
G75*
G02*
X89470000Y-107607250I0J243750D01*
G01*
X89470000Y-107119750D01*
G75*
G02*
X89713750Y-106876000I243750J0D01*
G01*
G37*
%TD*%
D16*
%TO.C,D24*%
X179943125Y-47687500D03*
X179943125Y-44387500D03*
%TD*%
D19*
%TO.C,K10*%
X193040000Y-22860000D03*
X199390000Y-20320000D03*
D18*
X201930000Y-25400000D03*
X191770000Y-25400000D03*
D17*
X196850000Y-25400000D03*
D20*
X189490000Y-22860000D03*
X202940000Y-20320000D03*
%TD*%
D19*
%TO.C,K46*%
X64452500Y-80010000D03*
D18*
X73342500Y-82550000D03*
X63182500Y-82550000D03*
D17*
X68262500Y-82550000D03*
D19*
X70802500Y-77470000D03*
D20*
X60902500Y-80010000D03*
X74352500Y-77470000D03*
%TD*%
D25*
%TO.C,D60*%
X41212500Y-96113633D03*
X44512500Y-96113633D03*
%TD*%
D19*
%TO.C,K56*%
X268446250Y-77470000D03*
D17*
X265906250Y-82550000D03*
D18*
X260826250Y-82550000D03*
D19*
X262096250Y-80010000D03*
D18*
X270986250Y-82550000D03*
D20*
X258546250Y-80010000D03*
X271996250Y-77470000D03*
%TD*%
%TO.C,C13*%
G36*
G01*
X150038750Y-104937500D02*
X150951250Y-104937500D01*
G75*
G02*
X151195000Y-105181250I0J-243750D01*
G01*
X151195000Y-105668750D01*
G75*
G02*
X150951250Y-105912500I-243750J0D01*
G01*
X150038750Y-105912500D01*
G75*
G02*
X149795000Y-105668750I0J243750D01*
G01*
X149795000Y-105181250D01*
G75*
G02*
X150038750Y-104937500I243750J0D01*
G01*
G37*
G36*
G01*
X150038750Y-106812500D02*
X150951250Y-106812500D01*
G75*
G02*
X151195000Y-107056250I0J-243750D01*
G01*
X151195000Y-107543750D01*
G75*
G02*
X150951250Y-107787500I-243750J0D01*
G01*
X150038750Y-107787500D01*
G75*
G02*
X149795000Y-107543750I0J243750D01*
G01*
X149795000Y-107056250D01*
G75*
G02*
X150038750Y-106812500I243750J0D01*
G01*
G37*
%TD*%
D16*
%TO.C,D51*%
X155971875Y-85850000D03*
X155971875Y-82550000D03*
%TD*%
%TO.C,C4*%
G36*
G01*
X53288250Y-55222200D02*
X52375750Y-55222200D01*
G75*
G02*
X52132000Y-54978450I0J243750D01*
G01*
X52132000Y-54490950D01*
G75*
G02*
X52375750Y-54247200I243750J0D01*
G01*
X53288250Y-54247200D01*
G75*
G02*
X53532000Y-54490950I0J-243750D01*
G01*
X53532000Y-54978450D01*
G75*
G02*
X53288250Y-55222200I-243750J0D01*
G01*
G37*
G36*
G01*
X53288250Y-53347200D02*
X52375750Y-53347200D01*
G75*
G02*
X52132000Y-53103450I0J243750D01*
G01*
X52132000Y-52615950D01*
G75*
G02*
X52375750Y-52372200I243750J0D01*
G01*
X53288250Y-52372200D01*
G75*
G02*
X53532000Y-52615950I0J-243750D01*
G01*
X53532000Y-53103450D01*
G75*
G02*
X53288250Y-53347200I-243750J0D01*
G01*
G37*
%TD*%
D18*
%TO.C,K13*%
X259080000Y-25400000D03*
D19*
X256540000Y-20320000D03*
D18*
X248920000Y-25400000D03*
D17*
X254000000Y-25400000D03*
D19*
X250190000Y-22860000D03*
D20*
X246640000Y-22860000D03*
X260090000Y-20320000D03*
%TD*%
D16*
%TO.C,D41*%
X222646875Y-66737500D03*
X222646875Y-63437500D03*
%TD*%
%TO.C,D54*%
X213121875Y-85850000D03*
X213121875Y-82550000D03*
%TD*%
D19*
%TO.C,K34*%
X99377500Y-58420000D03*
D18*
X101917500Y-63500000D03*
X91757500Y-63500000D03*
D19*
X93027500Y-60960000D03*
D17*
X96837500Y-63500000D03*
D20*
X89477500Y-60960000D03*
X102927500Y-58420000D03*
%TD*%
D19*
%TO.C,K62*%
X143033750Y-99060000D03*
D18*
X141763750Y-101600000D03*
D17*
X146843750Y-101600000D03*
D18*
X151923750Y-101600000D03*
D19*
X149383750Y-96520000D03*
D20*
X139483750Y-99060000D03*
X152933750Y-96520000D03*
%TD*%
D18*
%TO.C,K35*%
X120967500Y-63500000D03*
X110807500Y-63500000D03*
D19*
X112077500Y-60960000D03*
D17*
X115887500Y-63500000D03*
D19*
X118427500Y-58420000D03*
D20*
X108527500Y-60960000D03*
X121977500Y-58420000D03*
%TD*%
D16*
%TO.C,D10*%
X189309375Y-28637500D03*
X189309375Y-25337500D03*
%TD*%
%TO.C,C11*%
G36*
G01*
X64313750Y-105074900D02*
X65226250Y-105074900D01*
G75*
G02*
X65470000Y-105318650I0J-243750D01*
G01*
X65470000Y-105806150D01*
G75*
G02*
X65226250Y-106049900I-243750J0D01*
G01*
X64313750Y-106049900D01*
G75*
G02*
X64070000Y-105806150I0J243750D01*
G01*
X64070000Y-105318650D01*
G75*
G02*
X64313750Y-105074900I243750J0D01*
G01*
G37*
G36*
G01*
X64313750Y-106949900D02*
X65226250Y-106949900D01*
G75*
G02*
X65470000Y-107193650I0J-243750D01*
G01*
X65470000Y-107681150D01*
G75*
G02*
X65226250Y-107924900I-243750J0D01*
G01*
X64313750Y-107924900D01*
G75*
G02*
X64070000Y-107681150I0J243750D01*
G01*
X64070000Y-107193650D01*
G75*
G02*
X64313750Y-106949900I243750J0D01*
G01*
G37*
%TD*%
%TO.C,D55*%
X232171875Y-85850000D03*
X232171875Y-82550000D03*
%TD*%
D17*
%TO.C,K65*%
X273050000Y-101600000D03*
D19*
X269240000Y-99060000D03*
D18*
X267970000Y-101600000D03*
D19*
X275590000Y-96520000D03*
D18*
X278130000Y-101600000D03*
D20*
X265690000Y-99060000D03*
X279140000Y-96520000D03*
%TD*%
%TO.C,R7*%
G36*
G01*
X54507450Y-83594000D02*
X53594950Y-83594000D01*
G75*
G02*
X53351200Y-83350250I0J243750D01*
G01*
X53351200Y-82862750D01*
G75*
G02*
X53594950Y-82619000I243750J0D01*
G01*
X54507450Y-82619000D01*
G75*
G02*
X54751200Y-82862750I0J-243750D01*
G01*
X54751200Y-83350250D01*
G75*
G02*
X54507450Y-83594000I-243750J0D01*
G01*
G37*
G36*
G01*
X54507450Y-81719000D02*
X53594950Y-81719000D01*
G75*
G02*
X53351200Y-81475250I0J243750D01*
G01*
X53351200Y-80987750D01*
G75*
G02*
X53594950Y-80744000I243750J0D01*
G01*
X54507450Y-80744000D01*
G75*
G02*
X54751200Y-80987750I0J-243750D01*
G01*
X54751200Y-81475250D01*
G75*
G02*
X54507450Y-81719000I-243750J0D01*
G01*
G37*
%TD*%
D18*
%TO.C,K63*%
X215582500Y-101600000D03*
X225742500Y-101600000D03*
D19*
X223202500Y-96520000D03*
X216852500Y-99060000D03*
D17*
X220662500Y-101600000D03*
D20*
X213302500Y-99060000D03*
X226752500Y-96520000D03*
%TD*%
D17*
%TO.C,K44*%
X311150000Y-63500000D03*
D19*
X307340000Y-60960000D03*
D18*
X306070000Y-63500000D03*
X316230000Y-63500000D03*
D19*
X313690000Y-58420000D03*
D20*
X303790000Y-60960000D03*
X317240000Y-58420000D03*
%TD*%
D25*
%TO.C,D37*%
X150240000Y-65786000D03*
X146940000Y-65786000D03*
%TD*%
D16*
%TO.C,D44*%
X303609375Y-66737500D03*
X303609375Y-63437500D03*
%TD*%
%TO.C,D35*%
X108346875Y-66675000D03*
X108346875Y-63375000D03*
%TD*%
%TO.C,D4*%
X75009375Y-28637500D03*
X75009375Y-25337500D03*
%TD*%
D25*
%TO.C,D67*%
X300768750Y-96043750D03*
X304068750Y-96043750D03*
%TD*%
%TO.C,C8*%
G36*
G01*
X46533750Y-60170000D02*
X47446250Y-60170000D01*
G75*
G02*
X47690000Y-60413750I0J-243750D01*
G01*
X47690000Y-60901250D01*
G75*
G02*
X47446250Y-61145000I-243750J0D01*
G01*
X46533750Y-61145000D01*
G75*
G02*
X46290000Y-60901250I0J243750D01*
G01*
X46290000Y-60413750D01*
G75*
G02*
X46533750Y-60170000I243750J0D01*
G01*
G37*
G36*
G01*
X46533750Y-62045000D02*
X47446250Y-62045000D01*
G75*
G02*
X47690000Y-62288750I0J-243750D01*
G01*
X47690000Y-62776250D01*
G75*
G02*
X47446250Y-63020000I-243750J0D01*
G01*
X46533750Y-63020000D01*
G75*
G02*
X46290000Y-62776250I0J243750D01*
G01*
X46290000Y-62288750D01*
G75*
G02*
X46533750Y-62045000I243750J0D01*
G01*
G37*
%TD*%
D18*
%TO.C,K16*%
X35242500Y-44450000D03*
D19*
X26352500Y-41910000D03*
D18*
X25082500Y-44450000D03*
D19*
X32702500Y-39370000D03*
D17*
X30162500Y-44450000D03*
D20*
X22802500Y-41910000D03*
X36252500Y-39370000D03*
%TD*%
D16*
%TO.C,D31*%
X25003125Y-66737500D03*
X25003125Y-63437500D03*
%TD*%
%TO.C,RGB1*%
G36*
G01*
X59048750Y-107473350D02*
X59048750Y-107001650D01*
G75*
G02*
X59257900Y-106792500I209150J0D01*
G01*
X59879600Y-106792500D01*
G75*
G02*
X60088750Y-107001650I0J-209150D01*
G01*
X60088750Y-107473350D01*
G75*
G02*
X59879600Y-107682500I-209150J0D01*
G01*
X59257900Y-107682500D01*
G75*
G02*
X59048750Y-107473350I0J209150D01*
G01*
G37*
G36*
G01*
X59698750Y-107460000D02*
X59698750Y-106415000D01*
G75*
G02*
X59921250Y-106192500I222500J0D01*
G01*
X60366250Y-106192500D01*
G75*
G02*
X60588750Y-106415000I0J-222500D01*
G01*
X60588750Y-107460000D01*
G75*
G02*
X60366250Y-107682500I-222500J0D01*
G01*
X59921250Y-107682500D01*
G75*
G02*
X59698750Y-107460000I0J222500D01*
G01*
G37*
G36*
G01*
X60586250Y-105817475D02*
X60586250Y-105257525D01*
G75*
G02*
X60801275Y-105042500I215025J0D01*
G01*
X61286225Y-105042500D01*
G75*
G02*
X61501250Y-105257525I0J-215025D01*
G01*
X61501250Y-105817475D01*
G75*
G02*
X61286225Y-106032500I-215025J0D01*
G01*
X60801275Y-106032500D01*
G75*
G02*
X60586250Y-105817475I0J215025D01*
G01*
G37*
G36*
G01*
X59048750Y-105723350D02*
X59048750Y-105251650D01*
G75*
G02*
X59257900Y-105042500I209150J0D01*
G01*
X59879600Y-105042500D01*
G75*
G02*
X60088750Y-105251650I0J-209150D01*
G01*
X60088750Y-105723350D01*
G75*
G02*
X59879600Y-105932500I-209150J0D01*
G01*
X59257900Y-105932500D01*
G75*
G02*
X59048750Y-105723350I0J209150D01*
G01*
G37*
G36*
G01*
X59548750Y-105911559D02*
X59548750Y-105063441D01*
G75*
G02*
X59569691Y-105042500I20941J0D01*
G01*
X61167809Y-105042500D01*
G75*
G02*
X61188750Y-105063441I0J-20941D01*
G01*
X61188750Y-105911559D01*
G75*
G02*
X61167809Y-105932500I-20941J0D01*
G01*
X59569691Y-105932500D01*
G75*
G02*
X59548750Y-105911559I0J20941D01*
G01*
G37*
G36*
G01*
X61853750Y-105820670D02*
X61853750Y-105254330D01*
G75*
G02*
X62065580Y-105042500I211830J0D01*
G01*
X62331920Y-105042500D01*
G75*
G02*
X62543750Y-105254330I0J-211830D01*
G01*
X62543750Y-105820670D01*
G75*
G02*
X62331920Y-106032500I-211830J0D01*
G01*
X62065580Y-106032500D01*
G75*
G02*
X61853750Y-105820670I0J211830D01*
G01*
G37*
G36*
G01*
X62148750Y-105723350D02*
X62148750Y-105251650D01*
G75*
G02*
X62357900Y-105042500I209150J0D01*
G01*
X62979600Y-105042500D01*
G75*
G02*
X63188750Y-105251650I0J-209150D01*
G01*
X63188750Y-105723350D01*
G75*
G02*
X62979600Y-105932500I-209150J0D01*
G01*
X62357900Y-105932500D01*
G75*
G02*
X62148750Y-105723350I0J209150D01*
G01*
G37*
G36*
G01*
X62148750Y-107473350D02*
X62148750Y-107001650D01*
G75*
G02*
X62357900Y-106792500I209150J0D01*
G01*
X62979600Y-106792500D01*
G75*
G02*
X63188750Y-107001650I0J-209150D01*
G01*
X63188750Y-107473350D01*
G75*
G02*
X62979600Y-107682500I-209150J0D01*
G01*
X62357900Y-107682500D01*
G75*
G02*
X62148750Y-107473350I0J209150D01*
G01*
G37*
G36*
G01*
X60948750Y-107481100D02*
X60948750Y-106603900D01*
G75*
G02*
X61155150Y-106397500I206400J0D01*
G01*
X62332350Y-106397500D01*
G75*
G02*
X62538750Y-106603900I0J-206400D01*
G01*
X62538750Y-107481100D01*
G75*
G02*
X62332350Y-107687500I-206400J0D01*
G01*
X61155150Y-107687500D01*
G75*
G02*
X60948750Y-107481100I0J206400D01*
G01*
G37*
%TD*%
%TO.C,D17*%
X61595000Y-47687500D03*
X61595000Y-44387500D03*
%TD*%
D32*
%TO.C,U2*%
X35644000Y-31181000D03*
X35644000Y-32131000D03*
X35644000Y-33081000D03*
X33444000Y-33081000D03*
X33444000Y-32131000D03*
X33444000Y-31181000D03*
%TD*%
D16*
%TO.C,D33*%
X70246875Y-66800000D03*
X70246875Y-63500000D03*
%TD*%
D19*
%TO.C,K67*%
X313690000Y-96520000D03*
D17*
X311150000Y-101600000D03*
D18*
X306070000Y-101600000D03*
X316230000Y-101600000D03*
D19*
X307340000Y-99060000D03*
D20*
X303790000Y-99060000D03*
X317240000Y-96520000D03*
%TD*%
D25*
%TO.C,D61*%
X65025000Y-96043750D03*
X68325000Y-96043750D03*
%TD*%
%TO.C,C7*%
G36*
G01*
X47470000Y-46938250D02*
X47470000Y-46025750D01*
G75*
G02*
X47713750Y-45782000I243750J0D01*
G01*
X48201250Y-45782000D01*
G75*
G02*
X48445000Y-46025750I0J-243750D01*
G01*
X48445000Y-46938250D01*
G75*
G02*
X48201250Y-47182000I-243750J0D01*
G01*
X47713750Y-47182000D01*
G75*
G02*
X47470000Y-46938250I0J243750D01*
G01*
G37*
G36*
G01*
X49345000Y-46938250D02*
X49345000Y-46025750D01*
G75*
G02*
X49588750Y-45782000I243750J0D01*
G01*
X50076250Y-45782000D01*
G75*
G02*
X50320000Y-46025750I0J-243750D01*
G01*
X50320000Y-46938250D01*
G75*
G02*
X50076250Y-47182000I-243750J0D01*
G01*
X49588750Y-47182000D01*
G75*
G02*
X49345000Y-46938250I0J243750D01*
G01*
G37*
%TD*%
%TO.C,C16*%
G36*
G01*
X253162750Y-105001000D02*
X254075250Y-105001000D01*
G75*
G02*
X254319000Y-105244750I0J-243750D01*
G01*
X254319000Y-105732250D01*
G75*
G02*
X254075250Y-105976000I-243750J0D01*
G01*
X253162750Y-105976000D01*
G75*
G02*
X252919000Y-105732250I0J243750D01*
G01*
X252919000Y-105244750D01*
G75*
G02*
X253162750Y-105001000I243750J0D01*
G01*
G37*
G36*
G01*
X253162750Y-106876000D02*
X254075250Y-106876000D01*
G75*
G02*
X254319000Y-107119750I0J-243750D01*
G01*
X254319000Y-107607250D01*
G75*
G02*
X254075250Y-107851000I-243750J0D01*
G01*
X253162750Y-107851000D01*
G75*
G02*
X252919000Y-107607250I0J243750D01*
G01*
X252919000Y-107119750D01*
G75*
G02*
X253162750Y-106876000I243750J0D01*
G01*
G37*
%TD*%
%TO.C,U1*%
G36*
G01*
X50702776Y-53964301D02*
X50614388Y-54052689D01*
G75*
G02*
X50526000Y-54052689I-44194J44194D01*
G01*
X49995670Y-53522359D01*
G75*
G02*
X49995670Y-53433971I44194J44194D01*
G01*
X50084058Y-53345583D01*
G75*
G02*
X50172446Y-53345583I44194J-44194D01*
G01*
X50702776Y-53875913D01*
G75*
G02*
X50702776Y-53964301I-44194J-44194D01*
G01*
G37*
G36*
G01*
X50349223Y-54317854D02*
X50260835Y-54406242D01*
G75*
G02*
X50172447Y-54406242I-44194J44194D01*
G01*
X49642117Y-53875912D01*
G75*
G02*
X49642117Y-53787524I44194J44194D01*
G01*
X49730505Y-53699136D01*
G75*
G02*
X49818893Y-53699136I44194J-44194D01*
G01*
X50349223Y-54229466D01*
G75*
G02*
X50349223Y-54317854I-44194J-44194D01*
G01*
G37*
G36*
G01*
X49995669Y-54671408D02*
X49907281Y-54759796D01*
G75*
G02*
X49818893Y-54759796I-44194J44194D01*
G01*
X49288563Y-54229466D01*
G75*
G02*
X49288563Y-54141078I44194J44194D01*
G01*
X49376951Y-54052690D01*
G75*
G02*
X49465339Y-54052690I44194J-44194D01*
G01*
X49995669Y-54583020D01*
G75*
G02*
X49995669Y-54671408I-44194J-44194D01*
G01*
G37*
G36*
G01*
X49642116Y-55024961D02*
X49553728Y-55113349D01*
G75*
G02*
X49465340Y-55113349I-44194J44194D01*
G01*
X48935010Y-54583019D01*
G75*
G02*
X48935010Y-54494631I44194J44194D01*
G01*
X49023398Y-54406243D01*
G75*
G02*
X49111786Y-54406243I44194J-44194D01*
G01*
X49642116Y-54936573D01*
G75*
G02*
X49642116Y-55024961I-44194J-44194D01*
G01*
G37*
G36*
G01*
X49288563Y-55378514D02*
X49200175Y-55466902D01*
G75*
G02*
X49111787Y-55466902I-44194J44194D01*
G01*
X48581457Y-54936572D01*
G75*
G02*
X48581457Y-54848184I44194J44194D01*
G01*
X48669845Y-54759796D01*
G75*
G02*
X48758233Y-54759796I44194J-44194D01*
G01*
X49288563Y-55290126D01*
G75*
G02*
X49288563Y-55378514I-44194J-44194D01*
G01*
G37*
G36*
G01*
X48935009Y-55732068D02*
X48846621Y-55820456D01*
G75*
G02*
X48758233Y-55820456I-44194J44194D01*
G01*
X48227903Y-55290126D01*
G75*
G02*
X48227903Y-55201738I44194J44194D01*
G01*
X48316291Y-55113350D01*
G75*
G02*
X48404679Y-55113350I44194J-44194D01*
G01*
X48935009Y-55643680D01*
G75*
G02*
X48935009Y-55732068I-44194J-44194D01*
G01*
G37*
G36*
G01*
X48581456Y-56085621D02*
X48493068Y-56174009D01*
G75*
G02*
X48404680Y-56174009I-44194J44194D01*
G01*
X47874350Y-55643679D01*
G75*
G02*
X47874350Y-55555291I44194J44194D01*
G01*
X47962738Y-55466903D01*
G75*
G02*
X48051126Y-55466903I44194J-44194D01*
G01*
X48581456Y-55997233D01*
G75*
G02*
X48581456Y-56085621I-44194J-44194D01*
G01*
G37*
G36*
G01*
X48227902Y-56439175D02*
X48139514Y-56527563D01*
G75*
G02*
X48051126Y-56527563I-44194J44194D01*
G01*
X47520796Y-55997233D01*
G75*
G02*
X47520796Y-55908845I44194J44194D01*
G01*
X47609184Y-55820457D01*
G75*
G02*
X47697572Y-55820457I44194J-44194D01*
G01*
X48227902Y-56350787D01*
G75*
G02*
X48227902Y-56439175I-44194J-44194D01*
G01*
G37*
G36*
G01*
X47874349Y-56792728D02*
X47785961Y-56881116D01*
G75*
G02*
X47697573Y-56881116I-44194J44194D01*
G01*
X47167243Y-56350786D01*
G75*
G02*
X47167243Y-56262398I44194J44194D01*
G01*
X47255631Y-56174010D01*
G75*
G02*
X47344019Y-56174010I44194J-44194D01*
G01*
X47874349Y-56704340D01*
G75*
G02*
X47874349Y-56792728I-44194J-44194D01*
G01*
G37*
G36*
G01*
X47520796Y-57146281D02*
X47432408Y-57234669D01*
G75*
G02*
X47344020Y-57234669I-44194J44194D01*
G01*
X46813690Y-56704339D01*
G75*
G02*
X46813690Y-56615951I44194J44194D01*
G01*
X46902078Y-56527563D01*
G75*
G02*
X46990466Y-56527563I44194J-44194D01*
G01*
X47520796Y-57057893D01*
G75*
G02*
X47520796Y-57146281I-44194J-44194D01*
G01*
G37*
G36*
G01*
X47167242Y-57499835D02*
X47078854Y-57588223D01*
G75*
G02*
X46990466Y-57588223I-44194J44194D01*
G01*
X46460136Y-57057893D01*
G75*
G02*
X46460136Y-56969505I44194J44194D01*
G01*
X46548524Y-56881117D01*
G75*
G02*
X46636912Y-56881117I44194J-44194D01*
G01*
X47167242Y-57411447D01*
G75*
G02*
X47167242Y-57499835I-44194J-44194D01*
G01*
G37*
G36*
G01*
X46813689Y-57853388D02*
X46725301Y-57941776D01*
G75*
G02*
X46636913Y-57941776I-44194J44194D01*
G01*
X46106583Y-57411446D01*
G75*
G02*
X46106583Y-57323058I44194J44194D01*
G01*
X46194971Y-57234670D01*
G75*
G02*
X46283359Y-57234670I44194J-44194D01*
G01*
X46813689Y-57765000D01*
G75*
G02*
X46813689Y-57853388I-44194J-44194D01*
G01*
G37*
G36*
G01*
X45841417Y-57411446D02*
X45311087Y-57941776D01*
G75*
G02*
X45222699Y-57941776I-44194J44194D01*
G01*
X45134311Y-57853388D01*
G75*
G02*
X45134311Y-57765000I44194J44194D01*
G01*
X45664641Y-57234670D01*
G75*
G02*
X45753029Y-57234670I44194J-44194D01*
G01*
X45841417Y-57323058D01*
G75*
G02*
X45841417Y-57411446I-44194J-44194D01*
G01*
G37*
G36*
G01*
X45487864Y-57057893D02*
X44957534Y-57588223D01*
G75*
G02*
X44869146Y-57588223I-44194J44194D01*
G01*
X44780758Y-57499835D01*
G75*
G02*
X44780758Y-57411447I44194J44194D01*
G01*
X45311088Y-56881117D01*
G75*
G02*
X45399476Y-56881117I44194J-44194D01*
G01*
X45487864Y-56969505D01*
G75*
G02*
X45487864Y-57057893I-44194J-44194D01*
G01*
G37*
G36*
G01*
X45134310Y-56704339D02*
X44603980Y-57234669D01*
G75*
G02*
X44515592Y-57234669I-44194J44194D01*
G01*
X44427204Y-57146281D01*
G75*
G02*
X44427204Y-57057893I44194J44194D01*
G01*
X44957534Y-56527563D01*
G75*
G02*
X45045922Y-56527563I44194J-44194D01*
G01*
X45134310Y-56615951D01*
G75*
G02*
X45134310Y-56704339I-44194J-44194D01*
G01*
G37*
G36*
G01*
X44780757Y-56350786D02*
X44250427Y-56881116D01*
G75*
G02*
X44162039Y-56881116I-44194J44194D01*
G01*
X44073651Y-56792728D01*
G75*
G02*
X44073651Y-56704340I44194J44194D01*
G01*
X44603981Y-56174010D01*
G75*
G02*
X44692369Y-56174010I44194J-44194D01*
G01*
X44780757Y-56262398D01*
G75*
G02*
X44780757Y-56350786I-44194J-44194D01*
G01*
G37*
G36*
G01*
X44427204Y-55997233D02*
X43896874Y-56527563D01*
G75*
G02*
X43808486Y-56527563I-44194J44194D01*
G01*
X43720098Y-56439175D01*
G75*
G02*
X43720098Y-56350787I44194J44194D01*
G01*
X44250428Y-55820457D01*
G75*
G02*
X44338816Y-55820457I44194J-44194D01*
G01*
X44427204Y-55908845D01*
G75*
G02*
X44427204Y-55997233I-44194J-44194D01*
G01*
G37*
G36*
G01*
X44073650Y-55643679D02*
X43543320Y-56174009D01*
G75*
G02*
X43454932Y-56174009I-44194J44194D01*
G01*
X43366544Y-56085621D01*
G75*
G02*
X43366544Y-55997233I44194J44194D01*
G01*
X43896874Y-55466903D01*
G75*
G02*
X43985262Y-55466903I44194J-44194D01*
G01*
X44073650Y-55555291D01*
G75*
G02*
X44073650Y-55643679I-44194J-44194D01*
G01*
G37*
G36*
G01*
X43720097Y-55290126D02*
X43189767Y-55820456D01*
G75*
G02*
X43101379Y-55820456I-44194J44194D01*
G01*
X43012991Y-55732068D01*
G75*
G02*
X43012991Y-55643680I44194J44194D01*
G01*
X43543321Y-55113350D01*
G75*
G02*
X43631709Y-55113350I44194J-44194D01*
G01*
X43720097Y-55201738D01*
G75*
G02*
X43720097Y-55290126I-44194J-44194D01*
G01*
G37*
G36*
G01*
X43366543Y-54936572D02*
X42836213Y-55466902D01*
G75*
G02*
X42747825Y-55466902I-44194J44194D01*
G01*
X42659437Y-55378514D01*
G75*
G02*
X42659437Y-55290126I44194J44194D01*
G01*
X43189767Y-54759796D01*
G75*
G02*
X43278155Y-54759796I44194J-44194D01*
G01*
X43366543Y-54848184D01*
G75*
G02*
X43366543Y-54936572I-44194J-44194D01*
G01*
G37*
G36*
G01*
X43012990Y-54583019D02*
X42482660Y-55113349D01*
G75*
G02*
X42394272Y-55113349I-44194J44194D01*
G01*
X42305884Y-55024961D01*
G75*
G02*
X42305884Y-54936573I44194J44194D01*
G01*
X42836214Y-54406243D01*
G75*
G02*
X42924602Y-54406243I44194J-44194D01*
G01*
X43012990Y-54494631D01*
G75*
G02*
X43012990Y-54583019I-44194J-44194D01*
G01*
G37*
G36*
G01*
X42659437Y-54229466D02*
X42129107Y-54759796D01*
G75*
G02*
X42040719Y-54759796I-44194J44194D01*
G01*
X41952331Y-54671408D01*
G75*
G02*
X41952331Y-54583020I44194J44194D01*
G01*
X42482661Y-54052690D01*
G75*
G02*
X42571049Y-54052690I44194J-44194D01*
G01*
X42659437Y-54141078D01*
G75*
G02*
X42659437Y-54229466I-44194J-44194D01*
G01*
G37*
G36*
G01*
X42305883Y-53875912D02*
X41775553Y-54406242D01*
G75*
G02*
X41687165Y-54406242I-44194J44194D01*
G01*
X41598777Y-54317854D01*
G75*
G02*
X41598777Y-54229466I44194J44194D01*
G01*
X42129107Y-53699136D01*
G75*
G02*
X42217495Y-53699136I44194J-44194D01*
G01*
X42305883Y-53787524D01*
G75*
G02*
X42305883Y-53875912I-44194J-44194D01*
G01*
G37*
G36*
G01*
X41952330Y-53522359D02*
X41422000Y-54052689D01*
G75*
G02*
X41333612Y-54052689I-44194J44194D01*
G01*
X41245224Y-53964301D01*
G75*
G02*
X41245224Y-53875913I44194J44194D01*
G01*
X41775554Y-53345583D01*
G75*
G02*
X41863942Y-53345583I44194J-44194D01*
G01*
X41952330Y-53433971D01*
G75*
G02*
X41952330Y-53522359I-44194J-44194D01*
G01*
G37*
G36*
G01*
X41952330Y-52992029D02*
X41863942Y-53080417D01*
G75*
G02*
X41775554Y-53080417I-44194J44194D01*
G01*
X41245224Y-52550087D01*
G75*
G02*
X41245224Y-52461699I44194J44194D01*
G01*
X41333612Y-52373311D01*
G75*
G02*
X41422000Y-52373311I44194J-44194D01*
G01*
X41952330Y-52903641D01*
G75*
G02*
X41952330Y-52992029I-44194J-44194D01*
G01*
G37*
G36*
G01*
X42305883Y-52638476D02*
X42217495Y-52726864D01*
G75*
G02*
X42129107Y-52726864I-44194J44194D01*
G01*
X41598777Y-52196534D01*
G75*
G02*
X41598777Y-52108146I44194J44194D01*
G01*
X41687165Y-52019758D01*
G75*
G02*
X41775553Y-52019758I44194J-44194D01*
G01*
X42305883Y-52550088D01*
G75*
G02*
X42305883Y-52638476I-44194J-44194D01*
G01*
G37*
G36*
G01*
X42659437Y-52284922D02*
X42571049Y-52373310D01*
G75*
G02*
X42482661Y-52373310I-44194J44194D01*
G01*
X41952331Y-51842980D01*
G75*
G02*
X41952331Y-51754592I44194J44194D01*
G01*
X42040719Y-51666204D01*
G75*
G02*
X42129107Y-51666204I44194J-44194D01*
G01*
X42659437Y-52196534D01*
G75*
G02*
X42659437Y-52284922I-44194J-44194D01*
G01*
G37*
G36*
G01*
X43012990Y-51931369D02*
X42924602Y-52019757D01*
G75*
G02*
X42836214Y-52019757I-44194J44194D01*
G01*
X42305884Y-51489427D01*
G75*
G02*
X42305884Y-51401039I44194J44194D01*
G01*
X42394272Y-51312651D01*
G75*
G02*
X42482660Y-51312651I44194J-44194D01*
G01*
X43012990Y-51842981D01*
G75*
G02*
X43012990Y-51931369I-44194J-44194D01*
G01*
G37*
G36*
G01*
X43366543Y-51577816D02*
X43278155Y-51666204D01*
G75*
G02*
X43189767Y-51666204I-44194J44194D01*
G01*
X42659437Y-51135874D01*
G75*
G02*
X42659437Y-51047486I44194J44194D01*
G01*
X42747825Y-50959098D01*
G75*
G02*
X42836213Y-50959098I44194J-44194D01*
G01*
X43366543Y-51489428D01*
G75*
G02*
X43366543Y-51577816I-44194J-44194D01*
G01*
G37*
G36*
G01*
X43720097Y-51224262D02*
X43631709Y-51312650D01*
G75*
G02*
X43543321Y-51312650I-44194J44194D01*
G01*
X43012991Y-50782320D01*
G75*
G02*
X43012991Y-50693932I44194J44194D01*
G01*
X43101379Y-50605544D01*
G75*
G02*
X43189767Y-50605544I44194J-44194D01*
G01*
X43720097Y-51135874D01*
G75*
G02*
X43720097Y-51224262I-44194J-44194D01*
G01*
G37*
G36*
G01*
X44073650Y-50870709D02*
X43985262Y-50959097D01*
G75*
G02*
X43896874Y-50959097I-44194J44194D01*
G01*
X43366544Y-50428767D01*
G75*
G02*
X43366544Y-50340379I44194J44194D01*
G01*
X43454932Y-50251991D01*
G75*
G02*
X43543320Y-50251991I44194J-44194D01*
G01*
X44073650Y-50782321D01*
G75*
G02*
X44073650Y-50870709I-44194J-44194D01*
G01*
G37*
G36*
G01*
X44427204Y-50517155D02*
X44338816Y-50605543D01*
G75*
G02*
X44250428Y-50605543I-44194J44194D01*
G01*
X43720098Y-50075213D01*
G75*
G02*
X43720098Y-49986825I44194J44194D01*
G01*
X43808486Y-49898437D01*
G75*
G02*
X43896874Y-49898437I44194J-44194D01*
G01*
X44427204Y-50428767D01*
G75*
G02*
X44427204Y-50517155I-44194J-44194D01*
G01*
G37*
G36*
G01*
X44780757Y-50163602D02*
X44692369Y-50251990D01*
G75*
G02*
X44603981Y-50251990I-44194J44194D01*
G01*
X44073651Y-49721660D01*
G75*
G02*
X44073651Y-49633272I44194J44194D01*
G01*
X44162039Y-49544884D01*
G75*
G02*
X44250427Y-49544884I44194J-44194D01*
G01*
X44780757Y-50075214D01*
G75*
G02*
X44780757Y-50163602I-44194J-44194D01*
G01*
G37*
G36*
G01*
X45134310Y-49810049D02*
X45045922Y-49898437D01*
G75*
G02*
X44957534Y-49898437I-44194J44194D01*
G01*
X44427204Y-49368107D01*
G75*
G02*
X44427204Y-49279719I44194J44194D01*
G01*
X44515592Y-49191331D01*
G75*
G02*
X44603980Y-49191331I44194J-44194D01*
G01*
X45134310Y-49721661D01*
G75*
G02*
X45134310Y-49810049I-44194J-44194D01*
G01*
G37*
G36*
G01*
X45487864Y-49456495D02*
X45399476Y-49544883D01*
G75*
G02*
X45311088Y-49544883I-44194J44194D01*
G01*
X44780758Y-49014553D01*
G75*
G02*
X44780758Y-48926165I44194J44194D01*
G01*
X44869146Y-48837777D01*
G75*
G02*
X44957534Y-48837777I44194J-44194D01*
G01*
X45487864Y-49368107D01*
G75*
G02*
X45487864Y-49456495I-44194J-44194D01*
G01*
G37*
G36*
G01*
X45841417Y-49102942D02*
X45753029Y-49191330D01*
G75*
G02*
X45664641Y-49191330I-44194J44194D01*
G01*
X45134311Y-48661000D01*
G75*
G02*
X45134311Y-48572612I44194J44194D01*
G01*
X45222699Y-48484224D01*
G75*
G02*
X45311087Y-48484224I44194J-44194D01*
G01*
X45841417Y-49014554D01*
G75*
G02*
X45841417Y-49102942I-44194J-44194D01*
G01*
G37*
G36*
G01*
X46813689Y-48661000D02*
X46283359Y-49191330D01*
G75*
G02*
X46194971Y-49191330I-44194J44194D01*
G01*
X46106583Y-49102942D01*
G75*
G02*
X46106583Y-49014554I44194J44194D01*
G01*
X46636913Y-48484224D01*
G75*
G02*
X46725301Y-48484224I44194J-44194D01*
G01*
X46813689Y-48572612D01*
G75*
G02*
X46813689Y-48661000I-44194J-44194D01*
G01*
G37*
G36*
G01*
X47167242Y-49014553D02*
X46636912Y-49544883D01*
G75*
G02*
X46548524Y-49544883I-44194J44194D01*
G01*
X46460136Y-49456495D01*
G75*
G02*
X46460136Y-49368107I44194J44194D01*
G01*
X46990466Y-48837777D01*
G75*
G02*
X47078854Y-48837777I44194J-44194D01*
G01*
X47167242Y-48926165D01*
G75*
G02*
X47167242Y-49014553I-44194J-44194D01*
G01*
G37*
G36*
G01*
X47520796Y-49368107D02*
X46990466Y-49898437D01*
G75*
G02*
X46902078Y-49898437I-44194J44194D01*
G01*
X46813690Y-49810049D01*
G75*
G02*
X46813690Y-49721661I44194J44194D01*
G01*
X47344020Y-49191331D01*
G75*
G02*
X47432408Y-49191331I44194J-44194D01*
G01*
X47520796Y-49279719D01*
G75*
G02*
X47520796Y-49368107I-44194J-44194D01*
G01*
G37*
G36*
G01*
X47874349Y-49721660D02*
X47344019Y-50251990D01*
G75*
G02*
X47255631Y-50251990I-44194J44194D01*
G01*
X47167243Y-50163602D01*
G75*
G02*
X47167243Y-50075214I44194J44194D01*
G01*
X47697573Y-49544884D01*
G75*
G02*
X47785961Y-49544884I44194J-44194D01*
G01*
X47874349Y-49633272D01*
G75*
G02*
X47874349Y-49721660I-44194J-44194D01*
G01*
G37*
G36*
G01*
X48227902Y-50075213D02*
X47697572Y-50605543D01*
G75*
G02*
X47609184Y-50605543I-44194J44194D01*
G01*
X47520796Y-50517155D01*
G75*
G02*
X47520796Y-50428767I44194J44194D01*
G01*
X48051126Y-49898437D01*
G75*
G02*
X48139514Y-49898437I44194J-44194D01*
G01*
X48227902Y-49986825D01*
G75*
G02*
X48227902Y-50075213I-44194J-44194D01*
G01*
G37*
G36*
G01*
X48581456Y-50428767D02*
X48051126Y-50959097D01*
G75*
G02*
X47962738Y-50959097I-44194J44194D01*
G01*
X47874350Y-50870709D01*
G75*
G02*
X47874350Y-50782321I44194J44194D01*
G01*
X48404680Y-50251991D01*
G75*
G02*
X48493068Y-50251991I44194J-44194D01*
G01*
X48581456Y-50340379D01*
G75*
G02*
X48581456Y-50428767I-44194J-44194D01*
G01*
G37*
G36*
G01*
X48935009Y-50782320D02*
X48404679Y-51312650D01*
G75*
G02*
X48316291Y-51312650I-44194J44194D01*
G01*
X48227903Y-51224262D01*
G75*
G02*
X48227903Y-51135874I44194J44194D01*
G01*
X48758233Y-50605544D01*
G75*
G02*
X48846621Y-50605544I44194J-44194D01*
G01*
X48935009Y-50693932D01*
G75*
G02*
X48935009Y-50782320I-44194J-44194D01*
G01*
G37*
G36*
G01*
X49288563Y-51135874D02*
X48758233Y-51666204D01*
G75*
G02*
X48669845Y-51666204I-44194J44194D01*
G01*
X48581457Y-51577816D01*
G75*
G02*
X48581457Y-51489428I44194J44194D01*
G01*
X49111787Y-50959098D01*
G75*
G02*
X49200175Y-50959098I44194J-44194D01*
G01*
X49288563Y-51047486D01*
G75*
G02*
X49288563Y-51135874I-44194J-44194D01*
G01*
G37*
G36*
G01*
X49642116Y-51489427D02*
X49111786Y-52019757D01*
G75*
G02*
X49023398Y-52019757I-44194J44194D01*
G01*
X48935010Y-51931369D01*
G75*
G02*
X48935010Y-51842981I44194J44194D01*
G01*
X49465340Y-51312651D01*
G75*
G02*
X49553728Y-51312651I44194J-44194D01*
G01*
X49642116Y-51401039D01*
G75*
G02*
X49642116Y-51489427I-44194J-44194D01*
G01*
G37*
G36*
G01*
X49995669Y-51842980D02*
X49465339Y-52373310D01*
G75*
G02*
X49376951Y-52373310I-44194J44194D01*
G01*
X49288563Y-52284922D01*
G75*
G02*
X49288563Y-52196534I44194J44194D01*
G01*
X49818893Y-51666204D01*
G75*
G02*
X49907281Y-51666204I44194J-44194D01*
G01*
X49995669Y-51754592D01*
G75*
G02*
X49995669Y-51842980I-44194J-44194D01*
G01*
G37*
G36*
G01*
X50349223Y-52196534D02*
X49818893Y-52726864D01*
G75*
G02*
X49730505Y-52726864I-44194J44194D01*
G01*
X49642117Y-52638476D01*
G75*
G02*
X49642117Y-52550088I44194J44194D01*
G01*
X50172447Y-52019758D01*
G75*
G02*
X50260835Y-52019758I44194J-44194D01*
G01*
X50349223Y-52108146D01*
G75*
G02*
X50349223Y-52196534I-44194J-44194D01*
G01*
G37*
G36*
G01*
X50702776Y-52550087D02*
X50172446Y-53080417D01*
G75*
G02*
X50084058Y-53080417I-44194J44194D01*
G01*
X49995670Y-52992029D01*
G75*
G02*
X49995670Y-52903641I44194J44194D01*
G01*
X50526000Y-52373311D01*
G75*
G02*
X50614388Y-52373311I44194J-44194D01*
G01*
X50702776Y-52461699D01*
G75*
G02*
X50702776Y-52550087I-44194J-44194D01*
G01*
G37*
G36*
G01*
X49755607Y-53391191D02*
X46152191Y-56994607D01*
G75*
G02*
X45795809Y-56994607I-178191J178191D01*
G01*
X42192393Y-53391191D01*
G75*
G02*
X42192393Y-53034809I178191J178191D01*
G01*
X45795809Y-49431393D01*
G75*
G02*
X46152191Y-49431393I178191J-178191D01*
G01*
X49755607Y-53034809D01*
G75*
G02*
X49755607Y-53391191I-178191J-178191D01*
G01*
G37*
%TD*%
D16*
%TO.C,D9*%
X170259375Y-28637500D03*
X170259375Y-25337500D03*
%TD*%
%TO.C,C14*%
G36*
G01*
X171501750Y-105001000D02*
X172414250Y-105001000D01*
G75*
G02*
X172658000Y-105244750I0J-243750D01*
G01*
X172658000Y-105732250D01*
G75*
G02*
X172414250Y-105976000I-243750J0D01*
G01*
X171501750Y-105976000D01*
G75*
G02*
X171258000Y-105732250I0J243750D01*
G01*
X171258000Y-105244750D01*
G75*
G02*
X171501750Y-105001000I243750J0D01*
G01*
G37*
G36*
G01*
X171501750Y-106876000D02*
X172414250Y-106876000D01*
G75*
G02*
X172658000Y-107119750I0J-243750D01*
G01*
X172658000Y-107607250D01*
G75*
G02*
X172414250Y-107851000I-243750J0D01*
G01*
X171501750Y-107851000D01*
G75*
G02*
X171258000Y-107607250I0J243750D01*
G01*
X171258000Y-107119750D01*
G75*
G02*
X171501750Y-106876000I243750J0D01*
G01*
G37*
%TD*%
D25*
%TO.C,D64*%
X238856250Y-96043750D03*
X242156250Y-96043750D03*
%TD*%
D18*
%TO.C,K57*%
X287020000Y-82550000D03*
D17*
X292100000Y-82550000D03*
D19*
X288290000Y-80010000D03*
D18*
X297180000Y-82550000D03*
D19*
X294640000Y-77470000D03*
D20*
X284740000Y-80010000D03*
X298190000Y-77470000D03*
%TD*%
%TO.C,R1*%
G36*
G01*
X28118750Y-21593750D02*
X29031250Y-21593750D01*
G75*
G02*
X29275000Y-21837500I0J-243750D01*
G01*
X29275000Y-22325000D01*
G75*
G02*
X29031250Y-22568750I-243750J0D01*
G01*
X28118750Y-22568750D01*
G75*
G02*
X27875000Y-22325000I0J243750D01*
G01*
X27875000Y-21837500D01*
G75*
G02*
X28118750Y-21593750I243750J0D01*
G01*
G37*
G36*
G01*
X28118750Y-23468750D02*
X29031250Y-23468750D01*
G75*
G02*
X29275000Y-23712500I0J-243750D01*
G01*
X29275000Y-24200000D01*
G75*
G02*
X29031250Y-24443750I-243750J0D01*
G01*
X28118750Y-24443750D01*
G75*
G02*
X27875000Y-24200000I0J243750D01*
G01*
X27875000Y-23712500D01*
G75*
G02*
X28118750Y-23468750I243750J0D01*
G01*
G37*
%TD*%
D16*
%TO.C,D8*%
X151209375Y-28637500D03*
X151209375Y-25337500D03*
%TD*%
%TO.C,R2*%
G36*
G01*
X29242757Y-19736750D02*
X29242757Y-20649250D01*
G75*
G02*
X28999007Y-20893000I-243750J0D01*
G01*
X28511507Y-20893000D01*
G75*
G02*
X28267757Y-20649250I0J243750D01*
G01*
X28267757Y-19736750D01*
G75*
G02*
X28511507Y-19493000I243750J0D01*
G01*
X28999007Y-19493000D01*
G75*
G02*
X29242757Y-19736750I0J-243750D01*
G01*
G37*
G36*
G01*
X27367757Y-19736750D02*
X27367757Y-20649250D01*
G75*
G02*
X27124007Y-20893000I-243750J0D01*
G01*
X26636507Y-20893000D01*
G75*
G02*
X26392757Y-20649250I0J243750D01*
G01*
X26392757Y-19736750D01*
G75*
G02*
X26636507Y-19493000I243750J0D01*
G01*
X27124007Y-19493000D01*
G75*
G02*
X27367757Y-19736750I0J-243750D01*
G01*
G37*
%TD*%
D17*
%TO.C,K66*%
X292100000Y-101600000D03*
D19*
X288290000Y-99060000D03*
X294640000Y-96520000D03*
D18*
X297180000Y-101600000D03*
X287020000Y-101600000D03*
D29*
X284956250Y-99060000D03*
D20*
X298190000Y-96520000D03*
%TD*%
D17*
%TO.C,K11*%
X215900000Y-25400000D03*
D18*
X210820000Y-25400000D03*
D19*
X218440000Y-20320000D03*
X212090000Y-22860000D03*
D18*
X220980000Y-25400000D03*
D20*
X208540000Y-22860000D03*
X221990000Y-20320000D03*
%TD*%
D18*
%TO.C,K8*%
X153670000Y-25400000D03*
X163830000Y-25400000D03*
D19*
X161290000Y-20320000D03*
D17*
X158750000Y-25400000D03*
D19*
X154940000Y-22860000D03*
D20*
X151390000Y-22860000D03*
X164840000Y-20320000D03*
%TD*%
D17*
%TO.C,K7*%
X139700000Y-25400000D03*
D18*
X134620000Y-25400000D03*
D19*
X142240000Y-20320000D03*
X135890000Y-22860000D03*
D18*
X144780000Y-25400000D03*
D20*
X132340000Y-22860000D03*
X145790000Y-20320000D03*
%TD*%
D18*
%TO.C,K21*%
X135255000Y-44450000D03*
X125095000Y-44450000D03*
D19*
X126365000Y-41910000D03*
D17*
X130175000Y-44450000D03*
D19*
X132715000Y-39370000D03*
D20*
X122815000Y-41910000D03*
X136265000Y-39370000D03*
%TD*%
D18*
%TO.C,K12*%
X229870000Y-25400000D03*
D19*
X231140000Y-22860000D03*
X237490000Y-20320000D03*
D18*
X240030000Y-25400000D03*
D17*
X234950000Y-25400000D03*
D20*
X227590000Y-22860000D03*
X241040000Y-20320000D03*
%TD*%
M02*
