%TF.GenerationSoftware,KiCad,Pcbnew,(5.99.0-2809-gaceed2b0a4)*%
%TF.CreationDate,2020-08-30T23:01:33-04:00*%
%TF.ProjectId,athene-pcb-f072,61746865-6e65-42d7-9063-622d66303732,rev?*%
%TF.SameCoordinates,Original*%
%TF.FileFunction,Soldermask,Top*%
%TF.FilePolarity,Negative*%
%FSLAX46Y46*%
G04 Gerber Fmt 4.6, Leading zero omitted, Abs format (unit mm)*
G04 Created by KiCad (PCBNEW (5.99.0-2809-gaceed2b0a4)) date 2020-08-30 23:01:33*
%MOMM*%
%LPD*%
G01*
G04 APERTURE LIST*
%ADD10C,5.000000*%
%ADD11C,3.987800*%
%ADD12C,3.048000*%
%ADD13C,3.300000*%
%ADD14R,1.700000X1.700000*%
%ADD15O,1.700000X1.700000*%
%ADD16C,1.700000*%
%ADD17C,3.980180*%
%ADD18C,2.950000*%
%ADD19C,0.650000*%
%ADD20O,1.000000X1.600000*%
%ADD21O,1.000000X2.100000*%
%ADD22R,1.998980X1.998980*%
%ADD23C,1.998980*%
G04 APERTURE END LIST*
D10*
%TO.C,H4*%
X203200000Y-101600000D03*
%TD*%
D11*
%TO.C,ST_LSHIFT*%
X49244250Y-90805000D03*
D12*
X25368250Y-75565000D03*
D11*
X25368250Y-90805000D03*
D12*
X49244250Y-75565000D03*
%TD*%
%TO.C,ST_BKSP*%
X270637000Y-18415000D03*
D11*
X270637000Y-33655000D03*
D12*
X294513000Y-18415000D03*
D11*
X294513000Y-33655000D03*
%TD*%
D13*
%TO.C,H5*%
X282575000Y-101600000D03*
%TD*%
%TO.C,H3*%
X144462500Y-63500000D03*
%TD*%
D10*
%TO.C,H2*%
X40481250Y-101600000D03*
%TD*%
D11*
%TO.C,ST_ENTER*%
X292131750Y-55245000D03*
X268255750Y-55245000D03*
D12*
X292131750Y-70485000D03*
X268255750Y-70485000D03*
%TD*%
D10*
%TO.C,H1*%
X40481250Y-44450000D03*
%TD*%
D14*
%TO.C,J3*%
X21590000Y-61366400D03*
D15*
X21590000Y-63906400D03*
X21590000Y-66446400D03*
X21590000Y-68986400D03*
X21590000Y-71526400D03*
X21590000Y-74066400D03*
%TD*%
D10*
%TO.C,H6*%
X276225000Y-44454000D03*
%TD*%
D16*
%TO.C,K54*%
X215582500Y-82550000D03*
D17*
X220662500Y-82550000D03*
D16*
X225742500Y-82550000D03*
D18*
X216852500Y-80010000D03*
X223202500Y-77470000D03*
%TD*%
D19*
%TO.C,J1*%
X32035000Y-22062500D03*
X37815000Y-22062500D03*
D20*
X30605000Y-18412500D03*
D21*
X39245000Y-22592500D03*
X30605000Y-22592500D03*
D20*
X39245000Y-18412500D03*
%TD*%
D17*
%TO.C,K14*%
X282575000Y-25400000D03*
D16*
X287655000Y-25400000D03*
X277495000Y-25400000D03*
D18*
X278765000Y-22860000D03*
X285115000Y-20320000D03*
%TD*%
D16*
%TO.C,K58*%
X316230000Y-82550000D03*
D17*
X311150000Y-82550000D03*
D16*
X306070000Y-82550000D03*
D18*
X307340000Y-80010000D03*
X313690000Y-77470000D03*
%TD*%
%TO.C,K24*%
X183515000Y-41910000D03*
X189865000Y-39370000D03*
D17*
X187325000Y-44450000D03*
D16*
X182245000Y-44450000D03*
X192405000Y-44450000D03*
%TD*%
D18*
%TO.C,K51*%
X159702500Y-80010000D03*
D16*
X158432500Y-82550000D03*
D17*
X163512500Y-82550000D03*
D16*
X168592500Y-82550000D03*
D18*
X166052500Y-77470000D03*
%TD*%
D17*
%TO.C,K22*%
X149225000Y-44450000D03*
D18*
X145415000Y-41910000D03*
X151765000Y-39370000D03*
D16*
X154305000Y-44450000D03*
X144145000Y-44450000D03*
%TD*%
D18*
%TO.C,K59*%
X23971250Y-99060000D03*
D16*
X22701250Y-101600000D03*
X32861250Y-101600000D03*
D18*
X30321250Y-96520000D03*
D17*
X27781250Y-101600000D03*
%TD*%
D16*
%TO.C,K15*%
X316230000Y-25400000D03*
D17*
X311150000Y-25400000D03*
D16*
X306070000Y-25400000D03*
D18*
X313690000Y-20320000D03*
X307340000Y-22860000D03*
%TD*%
%TO.C,K6*%
X116840000Y-22860000D03*
D17*
X120650000Y-25400000D03*
D16*
X125730000Y-25400000D03*
X115570000Y-25400000D03*
D18*
X123190000Y-20320000D03*
%TD*%
%TO.C,K55*%
X242252500Y-77470000D03*
D16*
X234632500Y-82550000D03*
X244792500Y-82550000D03*
D17*
X239712500Y-82550000D03*
D18*
X235902500Y-80010000D03*
%TD*%
D17*
%TO.C,K9*%
X177800000Y-25400000D03*
D18*
X173990000Y-22860000D03*
X180340000Y-20320000D03*
D16*
X182880000Y-25400000D03*
X172720000Y-25400000D03*
%TD*%
D17*
%TO.C,K53*%
X201612500Y-82550000D03*
D18*
X204152500Y-77470000D03*
X197802500Y-80010000D03*
D16*
X206692500Y-82550000D03*
X196532500Y-82550000D03*
%TD*%
D17*
%TO.C,K31*%
X32543750Y-63500000D03*
D16*
X27463750Y-63500000D03*
D18*
X28733750Y-60960000D03*
D16*
X37623750Y-63500000D03*
D18*
X35083750Y-58420000D03*
%TD*%
%TO.C,K28*%
X266065000Y-39370000D03*
D16*
X268605000Y-44450000D03*
D17*
X263525000Y-44450000D03*
D16*
X258445000Y-44450000D03*
D18*
X259715000Y-41910000D03*
%TD*%
%TO.C,K30*%
X313690000Y-39370000D03*
D17*
X311150000Y-44450000D03*
D16*
X306070000Y-44450000D03*
X316230000Y-44450000D03*
D18*
X307340000Y-41910000D03*
%TD*%
D16*
%TO.C,K23*%
X163195000Y-44450000D03*
X173355000Y-44450000D03*
D18*
X170815000Y-39370000D03*
X164465000Y-41910000D03*
D17*
X168275000Y-44450000D03*
%TD*%
D22*
%TO.C,J2*%
X21590000Y-46228000D03*
D23*
X21590000Y-49403000D03*
X21590000Y-52578000D03*
X21590000Y-55753000D03*
%TD*%
D18*
%TO.C,K17*%
X56515000Y-39370000D03*
D17*
X53975000Y-44450000D03*
D16*
X48895000Y-44450000D03*
D18*
X50165000Y-41910000D03*
D16*
X59055000Y-44450000D03*
%TD*%
D18*
%TO.C,K26*%
X227965000Y-39370000D03*
D16*
X220345000Y-44450000D03*
X230505000Y-44450000D03*
D18*
X221615000Y-41910000D03*
D17*
X225425000Y-44450000D03*
%TD*%
D16*
%TO.C,K61*%
X80486250Y-101600000D03*
D18*
X77946250Y-96520000D03*
D16*
X70326250Y-101600000D03*
D18*
X71596250Y-99060000D03*
D17*
X75406250Y-101600000D03*
%TD*%
D16*
%TO.C,K5*%
X96520000Y-25400000D03*
D18*
X104140000Y-20320000D03*
D17*
X101600000Y-25400000D03*
D18*
X97790000Y-22860000D03*
D16*
X106680000Y-25400000D03*
%TD*%
%TO.C,K29*%
X292417500Y-44450000D03*
D18*
X283527500Y-41910000D03*
X289877500Y-39370000D03*
D16*
X282257500Y-44450000D03*
D17*
X287337500Y-44450000D03*
%TD*%
D18*
%TO.C,K47*%
X83502500Y-80010000D03*
D16*
X92392500Y-82550000D03*
D17*
X87312500Y-82550000D03*
D18*
X89852500Y-77470000D03*
D16*
X82232500Y-82550000D03*
%TD*%
D17*
%TO.C,K64*%
X249237500Y-101600000D03*
D18*
X245427500Y-99060000D03*
D16*
X244157500Y-101600000D03*
D18*
X251777500Y-96520000D03*
D16*
X254317500Y-101600000D03*
%TD*%
%TO.C,K2*%
X39370000Y-25400000D03*
D17*
X44450000Y-25400000D03*
D16*
X49530000Y-25400000D03*
D18*
X48260000Y-27940000D03*
X41910000Y-30480000D03*
%TD*%
%TO.C,K42*%
X251777500Y-58420000D03*
X245427500Y-60960000D03*
D17*
X249237500Y-63500000D03*
D16*
X254317500Y-63500000D03*
X244157500Y-63500000D03*
%TD*%
%TO.C,K38*%
X178117500Y-63500000D03*
D18*
X169227500Y-60960000D03*
D16*
X167957500Y-63500000D03*
D17*
X173037500Y-63500000D03*
D18*
X175577500Y-58420000D03*
%TD*%
D16*
%TO.C,K20*%
X106045000Y-44450000D03*
X116205000Y-44450000D03*
D18*
X107315000Y-41910000D03*
X113665000Y-39370000D03*
D17*
X111125000Y-44450000D03*
%TD*%
D16*
%TO.C,K52*%
X177482500Y-82550000D03*
D18*
X178752500Y-80010000D03*
X185102500Y-77470000D03*
D16*
X187642500Y-82550000D03*
D17*
X182562500Y-82550000D03*
%TD*%
D18*
%TO.C,K27*%
X247015000Y-39370000D03*
D17*
X244475000Y-44450000D03*
D16*
X249555000Y-44450000D03*
D18*
X240665000Y-41910000D03*
D16*
X239395000Y-44450000D03*
%TD*%
%TO.C,K4*%
X87630000Y-25400000D03*
D18*
X78740000Y-22860000D03*
D17*
X82550000Y-25400000D03*
D16*
X77470000Y-25400000D03*
D18*
X85090000Y-20320000D03*
%TD*%
%TO.C,K48*%
X108902500Y-77470000D03*
D16*
X111442500Y-82550000D03*
X101282500Y-82550000D03*
D18*
X102552500Y-80010000D03*
D17*
X106362500Y-82550000D03*
%TD*%
%TO.C,K49*%
X125412500Y-82550000D03*
D16*
X130492500Y-82550000D03*
D18*
X127952500Y-77470000D03*
D16*
X120332500Y-82550000D03*
D18*
X121602500Y-80010000D03*
%TD*%
D17*
%TO.C,K41*%
X230187500Y-63500000D03*
D18*
X226377500Y-60960000D03*
D16*
X235267500Y-63500000D03*
D18*
X232727500Y-58420000D03*
D16*
X225107500Y-63500000D03*
%TD*%
D18*
%TO.C,K33*%
X80327500Y-58420000D03*
D16*
X72707500Y-63500000D03*
X82867500Y-63500000D03*
D18*
X73977500Y-60960000D03*
D17*
X77787500Y-63500000D03*
%TD*%
D16*
%TO.C,K1*%
X30480000Y-25400000D03*
D17*
X25400000Y-25400000D03*
D18*
X22860000Y-30480000D03*
X29210000Y-27940000D03*
D16*
X20320000Y-25400000D03*
%TD*%
D11*
%TO.C,ST_SPACE*%
X96805750Y-93345000D03*
D12*
X196881750Y-108585000D03*
D11*
X196881750Y-93345000D03*
D12*
X96805750Y-108585000D03*
%TD*%
D18*
%TO.C,K32*%
X54927500Y-60960000D03*
D17*
X58737500Y-63500000D03*
D16*
X63817500Y-63500000D03*
X53657500Y-63500000D03*
D18*
X61277500Y-58420000D03*
%TD*%
%TO.C,K19*%
X94615000Y-39370000D03*
D17*
X92075000Y-44450000D03*
D16*
X86995000Y-44450000D03*
X97155000Y-44450000D03*
D18*
X88265000Y-41910000D03*
%TD*%
D16*
%TO.C,K18*%
X67945000Y-44450000D03*
D18*
X69215000Y-41910000D03*
D17*
X73025000Y-44450000D03*
D18*
X75565000Y-39370000D03*
D16*
X78105000Y-44450000D03*
%TD*%
%TO.C,K25*%
X201295000Y-44450000D03*
D18*
X208915000Y-39370000D03*
D16*
X211455000Y-44450000D03*
D18*
X202565000Y-41910000D03*
D17*
X206375000Y-44450000D03*
%TD*%
D18*
%TO.C,K50*%
X140652500Y-80010000D03*
X147002500Y-77470000D03*
D16*
X149542500Y-82550000D03*
D17*
X144462500Y-82550000D03*
D16*
X139382500Y-82550000D03*
%TD*%
D18*
%TO.C,K45*%
X39846250Y-77470000D03*
D17*
X37306250Y-82550000D03*
D16*
X42386250Y-82550000D03*
X32226250Y-82550000D03*
D18*
X33496250Y-80010000D03*
%TD*%
D16*
%TO.C,K36*%
X140017500Y-63500000D03*
X129857500Y-63500000D03*
D18*
X131127500Y-60960000D03*
D17*
X134937500Y-63500000D03*
D18*
X137477500Y-58420000D03*
%TD*%
D16*
%TO.C,K39*%
X187007500Y-63500000D03*
D17*
X192087500Y-63500000D03*
D16*
X197167500Y-63500000D03*
D18*
X194627500Y-58420000D03*
X188277500Y-60960000D03*
%TD*%
D16*
%TO.C,K3*%
X58420000Y-25400000D03*
D17*
X63500000Y-25400000D03*
D18*
X59690000Y-22860000D03*
X66040000Y-20320000D03*
D16*
X68580000Y-25400000D03*
%TD*%
%TO.C,K37*%
X159067500Y-63500000D03*
D18*
X156527500Y-58420000D03*
D16*
X148907500Y-63500000D03*
D17*
X153987500Y-63500000D03*
D18*
X150177500Y-60960000D03*
%TD*%
D16*
%TO.C,K60*%
X46513750Y-101600000D03*
D17*
X51593750Y-101600000D03*
D18*
X54133750Y-96520000D03*
D16*
X56673750Y-101600000D03*
D18*
X47783750Y-99060000D03*
%TD*%
%TO.C,K40*%
X207327500Y-60960000D03*
D16*
X216217500Y-63500000D03*
D18*
X213677500Y-58420000D03*
D17*
X211137500Y-63500000D03*
D16*
X206057500Y-63500000D03*
%TD*%
D17*
%TO.C,K43*%
X280193750Y-63500000D03*
D18*
X276383750Y-60960000D03*
D16*
X275113750Y-63500000D03*
D18*
X282733750Y-58420000D03*
D16*
X285273750Y-63500000D03*
%TD*%
D18*
%TO.C,K10*%
X199390000Y-20320000D03*
D17*
X196850000Y-25400000D03*
D16*
X201930000Y-25400000D03*
X191770000Y-25400000D03*
D18*
X193040000Y-22860000D03*
%TD*%
%TO.C,K46*%
X64452500Y-80010000D03*
D17*
X68262500Y-82550000D03*
D18*
X70802500Y-77470000D03*
D16*
X63182500Y-82550000D03*
X73342500Y-82550000D03*
%TD*%
%TO.C,K56*%
X270986250Y-82550000D03*
D17*
X265906250Y-82550000D03*
D16*
X260826250Y-82550000D03*
D18*
X262096250Y-80010000D03*
X268446250Y-77470000D03*
%TD*%
%TO.C,K13*%
X250190000Y-22860000D03*
D17*
X254000000Y-25400000D03*
D16*
X259080000Y-25400000D03*
X248920000Y-25400000D03*
D18*
X256540000Y-20320000D03*
%TD*%
D16*
%TO.C,K34*%
X91757500Y-63500000D03*
D18*
X93027500Y-60960000D03*
X99377500Y-58420000D03*
D16*
X101917500Y-63500000D03*
D17*
X96837500Y-63500000D03*
%TD*%
D16*
%TO.C,K62*%
X151923750Y-101600000D03*
D18*
X149383750Y-96520000D03*
D16*
X141763750Y-101600000D03*
D18*
X143033750Y-99060000D03*
D17*
X146843750Y-101600000D03*
%TD*%
D16*
%TO.C,K35*%
X110807500Y-63500000D03*
D18*
X118427500Y-58420000D03*
D16*
X120967500Y-63500000D03*
D17*
X115887500Y-63500000D03*
D18*
X112077500Y-60960000D03*
%TD*%
%TO.C,K65*%
X269240000Y-99060000D03*
D17*
X273050000Y-101600000D03*
D16*
X267970000Y-101600000D03*
D18*
X275590000Y-96520000D03*
D16*
X278130000Y-101600000D03*
%TD*%
D17*
%TO.C,K63*%
X220662500Y-101600000D03*
D18*
X223202500Y-96520000D03*
D16*
X215582500Y-101600000D03*
D18*
X216852500Y-99060000D03*
D16*
X225742500Y-101600000D03*
%TD*%
%TO.C,K44*%
X316230000Y-63500000D03*
D18*
X307340000Y-60960000D03*
X313690000Y-58420000D03*
D16*
X306070000Y-63500000D03*
D17*
X311150000Y-63500000D03*
%TD*%
D18*
%TO.C,K16*%
X32702500Y-39370000D03*
X26352500Y-41910000D03*
D16*
X25082500Y-44450000D03*
D17*
X30162500Y-44450000D03*
D16*
X35242500Y-44450000D03*
%TD*%
D18*
%TO.C,K67*%
X313690000Y-96520000D03*
D17*
X311150000Y-101600000D03*
D16*
X316230000Y-101600000D03*
D18*
X307340000Y-99060000D03*
D16*
X306070000Y-101600000D03*
%TD*%
%TO.C,K57*%
X287020000Y-82550000D03*
D18*
X294640000Y-77470000D03*
X288290000Y-80010000D03*
D17*
X292100000Y-82550000D03*
D16*
X297180000Y-82550000D03*
%TD*%
D17*
%TO.C,K66*%
X292100000Y-101600000D03*
D16*
X287020000Y-101600000D03*
D18*
X294640000Y-96520000D03*
D16*
X297180000Y-101600000D03*
D18*
X288290000Y-99060000D03*
%TD*%
D16*
%TO.C,K11*%
X210820000Y-25400000D03*
D18*
X218440000Y-20320000D03*
X212090000Y-22860000D03*
D17*
X215900000Y-25400000D03*
D16*
X220980000Y-25400000D03*
%TD*%
%TO.C,K8*%
X163830000Y-25400000D03*
X153670000Y-25400000D03*
D17*
X158750000Y-25400000D03*
D18*
X154940000Y-22860000D03*
X161290000Y-20320000D03*
%TD*%
D16*
%TO.C,K7*%
X134620000Y-25400000D03*
D17*
X139700000Y-25400000D03*
D18*
X135890000Y-22860000D03*
D16*
X144780000Y-25400000D03*
D18*
X142240000Y-20320000D03*
%TD*%
%TO.C,K21*%
X126365000Y-41910000D03*
X132715000Y-39370000D03*
D17*
X130175000Y-44450000D03*
D16*
X135255000Y-44450000D03*
X125095000Y-44450000D03*
%TD*%
D18*
%TO.C,K12*%
X231140000Y-22860000D03*
X237490000Y-20320000D03*
D16*
X240030000Y-25400000D03*
D17*
X234950000Y-25400000D03*
D16*
X229870000Y-25400000D03*
%TD*%
M02*
