%TF.GenerationSoftware,KiCad,Pcbnew,(5.99.0-2809-gaceed2b0a4)*%
%TF.CreationDate,2020-08-30T23:01:33-04:00*%
%TF.ProjectId,athene-pcb-f072,61746865-6e65-42d7-9063-622d66303732,rev?*%
%TF.SameCoordinates,Original*%
%TF.FileFunction,Legend,Top*%
%TF.FilePolarity,Positive*%
%FSLAX46Y46*%
G04 Gerber Fmt 4.6, Leading zero omitted, Abs format (unit mm)*
G04 Created by KiCad (PCBNEW (5.99.0-2809-gaceed2b0a4)) date 2020-08-30 23:01:33*
%MOMM*%
%LPD*%
G01*
G04 APERTURE LIST*
%ADD10C,0.120000*%
%ADD11C,5.000000*%
%ADD12C,3.987800*%
%ADD13C,3.048000*%
%ADD14C,3.300000*%
%ADD15R,1.700000X1.700000*%
%ADD16O,1.700000X1.700000*%
%ADD17C,1.700000*%
%ADD18C,3.980180*%
%ADD19C,2.950000*%
%ADD20C,0.650000*%
%ADD21O,1.000000X1.600000*%
%ADD22O,1.000000X2.100000*%
%ADD23R,1.998980X1.998980*%
%ADD24C,1.998980*%
G04 APERTURE END LIST*
%TO.C,kl logo*%
G36*
X167908009Y-95144575D02*
G01*
X168043585Y-95144934D01*
X168151557Y-95145801D01*
X168235934Y-95147395D01*
X168300726Y-95149935D01*
X168349942Y-95153641D01*
X168387593Y-95158732D01*
X168417687Y-95165427D01*
X168444235Y-95173947D01*
X168471112Y-95184454D01*
X168613782Y-95261005D01*
X168736549Y-95364281D01*
X168835177Y-95489697D01*
X168905428Y-95632672D01*
X168916815Y-95666546D01*
X168920074Y-95677514D01*
X168923126Y-95689397D01*
X168925977Y-95703352D01*
X168928634Y-95720535D01*
X168931105Y-95742103D01*
X168933395Y-95769213D01*
X168935511Y-95803021D01*
X168937461Y-95844684D01*
X168939252Y-95895358D01*
X168940889Y-95956199D01*
X168942380Y-96028365D01*
X168943732Y-96113011D01*
X168944952Y-96211295D01*
X168946046Y-96324372D01*
X168947021Y-96453400D01*
X168947885Y-96599535D01*
X168948643Y-96763933D01*
X168949303Y-96947751D01*
X168949871Y-97152145D01*
X168950355Y-97378272D01*
X168950761Y-97627289D01*
X168951095Y-97900352D01*
X168951366Y-98198618D01*
X168951579Y-98523242D01*
X168951742Y-98875382D01*
X168951861Y-99256195D01*
X168951943Y-99666836D01*
X168951995Y-100108462D01*
X168952023Y-100582230D01*
X168952035Y-101089296D01*
X168952038Y-101630817D01*
X168952038Y-101637000D01*
X168952035Y-102178908D01*
X168952023Y-102686349D01*
X168951995Y-103160479D01*
X168951943Y-103602454D01*
X168951862Y-104013431D01*
X168951743Y-104394567D01*
X168951581Y-104747018D01*
X168951369Y-105071940D01*
X168951099Y-105370491D01*
X168950765Y-105643826D01*
X168950360Y-105893102D01*
X168949877Y-106119476D01*
X168949309Y-106324105D01*
X168948651Y-106508144D01*
X168947894Y-106672750D01*
X168947032Y-106819080D01*
X168946058Y-106948291D01*
X168944965Y-107061538D01*
X168943747Y-107159979D01*
X168942396Y-107244770D01*
X168940906Y-107317067D01*
X168939270Y-107378027D01*
X168937482Y-107428807D01*
X168935534Y-107470563D01*
X168933419Y-107504452D01*
X168931131Y-107531629D01*
X168928663Y-107553253D01*
X168926008Y-107570478D01*
X168923159Y-107584463D01*
X168920109Y-107596362D01*
X168916852Y-107607333D01*
X168916815Y-107607454D01*
X168853507Y-107753666D01*
X168760925Y-107883353D01*
X168643391Y-107991843D01*
X168505226Y-108074467D01*
X168471112Y-108089268D01*
X168442873Y-108100126D01*
X168414714Y-108108834D01*
X168382424Y-108115657D01*
X168341789Y-108120858D01*
X168288596Y-108124702D01*
X168218632Y-108127453D01*
X168127684Y-108129374D01*
X168011538Y-108130731D01*
X167865983Y-108131787D01*
X167785348Y-108132259D01*
X167640518Y-108132607D01*
X167504068Y-108132045D01*
X167380881Y-108130662D01*
X167275839Y-108128544D01*
X167193822Y-108125780D01*
X167139714Y-108122459D01*
X167123039Y-108120311D01*
X166984040Y-108074395D01*
X166855032Y-107998499D01*
X166741187Y-107897937D01*
X166647677Y-107778026D01*
X166579673Y-107644081D01*
X166546638Y-107527869D01*
X166544931Y-107500606D01*
X166543335Y-107438187D01*
X166541849Y-107341080D01*
X166540476Y-107209752D01*
X166539216Y-107044672D01*
X166538070Y-106846308D01*
X166537039Y-106615127D01*
X166536125Y-106351597D01*
X166535327Y-106056186D01*
X166534648Y-105729362D01*
X166534088Y-105371593D01*
X166533648Y-104983347D01*
X166533329Y-104565092D01*
X166533132Y-104117294D01*
X166533059Y-103640424D01*
X166533109Y-103134947D01*
X166533285Y-102601333D01*
X166533587Y-102040049D01*
X166533918Y-101574370D01*
X166538504Y-95714490D01*
X166578836Y-95616523D01*
X166658408Y-95467767D01*
X166764284Y-95342800D01*
X166895037Y-95243050D01*
X167010523Y-95184836D01*
X167037448Y-95174187D01*
X167063799Y-95165598D01*
X167093582Y-95158849D01*
X167130807Y-95153717D01*
X167179479Y-95149981D01*
X167243608Y-95147421D01*
X167327199Y-95145814D01*
X167434261Y-95144940D01*
X167568802Y-95144577D01*
X167734828Y-95144504D01*
X167740818Y-95144504D01*
X167908009Y-95144575D01*
G37*
G36*
X173779936Y-98860200D02*
G01*
X173931169Y-98861177D01*
X174026373Y-98861940D01*
X174661665Y-98867224D01*
X174777865Y-98924457D01*
X174912583Y-99009403D01*
X175024222Y-99117681D01*
X175110672Y-99244523D01*
X175169822Y-99385159D01*
X175199559Y-99534820D01*
X175197773Y-99688739D01*
X175171611Y-99813778D01*
X175143145Y-99890640D01*
X175106639Y-99967003D01*
X175075702Y-100017823D01*
X175055262Y-100042159D01*
X175012047Y-100090418D01*
X174947826Y-100160706D01*
X174864369Y-100251126D01*
X174763446Y-100359784D01*
X174646826Y-100484783D01*
X174516279Y-100624230D01*
X174373574Y-100776228D01*
X174220483Y-100938882D01*
X174058773Y-101110297D01*
X173890216Y-101288577D01*
X173814731Y-101368291D01*
X173643671Y-101549167D01*
X173478714Y-101724206D01*
X173321632Y-101891495D01*
X173174193Y-102049123D01*
X173038170Y-102195175D01*
X172915331Y-102327740D01*
X172807448Y-102444903D01*
X172716290Y-102544753D01*
X172643628Y-102625377D01*
X172591232Y-102684862D01*
X172560872Y-102721294D01*
X172555011Y-102729431D01*
X172494560Y-102854036D01*
X172457426Y-102991114D01*
X172446910Y-103127225D01*
X172448969Y-103161076D01*
X172459538Y-103240254D01*
X172477471Y-103313430D01*
X172505651Y-103386223D01*
X172546962Y-103464250D01*
X172604288Y-103553127D01*
X172680511Y-103658473D01*
X172752801Y-103752937D01*
X172794394Y-103806401D01*
X172856077Y-103885604D01*
X172936022Y-103988201D01*
X173032402Y-104111848D01*
X173143387Y-104254200D01*
X173267150Y-104412914D01*
X173401862Y-104585644D01*
X173545696Y-104770046D01*
X173696822Y-104963777D01*
X173853414Y-105164491D01*
X174013642Y-105369844D01*
X174109987Y-105493311D01*
X174267047Y-105694711D01*
X174418424Y-105889076D01*
X174562612Y-106074460D01*
X174698104Y-106248915D01*
X174823396Y-106410494D01*
X174936980Y-106557249D01*
X175037351Y-106687234D01*
X175123004Y-106798499D01*
X175192431Y-106889099D01*
X175244127Y-106957085D01*
X175276586Y-107000511D01*
X175287681Y-107016243D01*
X175343441Y-107139486D01*
X175374300Y-107278950D01*
X175379904Y-107425035D01*
X175359893Y-107568142D01*
X175313913Y-107698669D01*
X175313115Y-107700297D01*
X175224187Y-107844308D01*
X175113168Y-107961235D01*
X174981683Y-108049718D01*
X174831360Y-108108399D01*
X174821823Y-108110930D01*
X174770822Y-108119090D01*
X174689721Y-108125892D01*
X174583879Y-108131337D01*
X174458655Y-108135432D01*
X174319408Y-108138179D01*
X174171495Y-108139582D01*
X174020277Y-108139646D01*
X173871112Y-108138374D01*
X173729359Y-108135771D01*
X173600376Y-108131839D01*
X173489522Y-108126583D01*
X173402157Y-108120008D01*
X173343639Y-108112116D01*
X173333805Y-108109847D01*
X173243076Y-108077207D01*
X173147852Y-108029318D01*
X173061800Y-107973862D01*
X173004218Y-107924591D01*
X172988884Y-107905409D01*
X172953506Y-107859182D01*
X172899256Y-107787481D01*
X172827307Y-107691876D01*
X172738832Y-107573939D01*
X172635005Y-107435241D01*
X172516998Y-107277353D01*
X172385984Y-107101845D01*
X172243136Y-106910288D01*
X172089628Y-106704254D01*
X171926632Y-106485313D01*
X171755322Y-106255037D01*
X171576870Y-106014996D01*
X171392449Y-105766761D01*
X171294940Y-105635446D01*
X171046629Y-105300762D01*
X170819371Y-104993972D01*
X170612765Y-104714525D01*
X170426413Y-104461874D01*
X170259915Y-104235471D01*
X170112871Y-104034765D01*
X169984883Y-103859210D01*
X169875550Y-103708256D01*
X169784474Y-103581355D01*
X169711256Y-103477959D01*
X169655495Y-103397517D01*
X169616792Y-103339484D01*
X169594749Y-103303308D01*
X169589958Y-103293522D01*
X169569104Y-103231037D01*
X169556930Y-103164907D01*
X169551618Y-103082668D01*
X169550961Y-103026341D01*
X169560560Y-102878266D01*
X169590871Y-102752750D01*
X169644167Y-102641873D01*
X169673852Y-102597900D01*
X169695266Y-102572518D01*
X169739291Y-102523581D01*
X169804187Y-102452917D01*
X169888211Y-102362359D01*
X169989623Y-102253737D01*
X170106680Y-102128881D01*
X170237642Y-101989621D01*
X170380766Y-101837789D01*
X170534312Y-101675214D01*
X170696538Y-101503728D01*
X170865702Y-101325161D01*
X171040064Y-101141343D01*
X171217881Y-100954105D01*
X171397413Y-100765278D01*
X171576918Y-100576692D01*
X171754653Y-100390178D01*
X171928879Y-100207565D01*
X172097854Y-100030686D01*
X172259835Y-99861370D01*
X172413082Y-99701447D01*
X172555854Y-99552749D01*
X172686408Y-99417106D01*
X172803004Y-99296348D01*
X172903899Y-99192307D01*
X172987353Y-99106811D01*
X173051624Y-99041693D01*
X173094971Y-98998783D01*
X173115652Y-98979911D01*
X173115849Y-98979773D01*
X173180389Y-98941664D01*
X173256168Y-98905529D01*
X173292658Y-98891249D01*
X173320791Y-98882093D01*
X173350259Y-98874764D01*
X173385076Y-98869103D01*
X173429258Y-98864950D01*
X173486820Y-98862143D01*
X173561776Y-98860523D01*
X173658144Y-98859929D01*
X173779936Y-98860200D01*
G37*
G36*
X178565985Y-95138496D02*
G01*
X178694262Y-95140121D01*
X178798499Y-95142985D01*
X178874725Y-95147013D01*
X178916509Y-95151647D01*
X179066440Y-95196835D01*
X179202332Y-95272145D01*
X179320005Y-95373466D01*
X179415278Y-95496687D01*
X179483968Y-95637698D01*
X179512525Y-95737631D01*
X179514421Y-95764383D01*
X179516228Y-95825133D01*
X179517946Y-95918254D01*
X179519576Y-96042120D01*
X179521117Y-96195105D01*
X179522570Y-96375582D01*
X179523934Y-96581925D01*
X179525209Y-96812508D01*
X179526396Y-97065704D01*
X179527495Y-97339888D01*
X179528505Y-97633432D01*
X179529426Y-97944710D01*
X179530259Y-98272097D01*
X179531003Y-98613966D01*
X179531659Y-98968690D01*
X179532226Y-99334643D01*
X179532704Y-99710199D01*
X179533095Y-100093731D01*
X179533396Y-100483614D01*
X179533609Y-100878220D01*
X179533733Y-101275924D01*
X179533769Y-101675099D01*
X179533716Y-102074119D01*
X179533575Y-102471357D01*
X179533345Y-102865188D01*
X179533027Y-103253984D01*
X179532620Y-103636120D01*
X179532125Y-104009970D01*
X179531540Y-104373906D01*
X179530868Y-104726303D01*
X179530107Y-105065534D01*
X179529257Y-105389973D01*
X179528319Y-105697993D01*
X179527292Y-105987969D01*
X179526177Y-106258274D01*
X179524973Y-106507281D01*
X179523680Y-106733365D01*
X179522299Y-106934899D01*
X179520830Y-107110256D01*
X179519272Y-107257811D01*
X179517625Y-107375936D01*
X179515890Y-107463007D01*
X179514066Y-107517395D01*
X179512525Y-107536369D01*
X179466131Y-107679104D01*
X179391741Y-107811724D01*
X179294637Y-107927283D01*
X179180100Y-108018835D01*
X179120142Y-108052377D01*
X179069395Y-108075477D01*
X179019307Y-108094075D01*
X178965374Y-108108636D01*
X178903096Y-108119625D01*
X178827970Y-108127507D01*
X178735494Y-108132746D01*
X178621167Y-108135807D01*
X178480487Y-108137154D01*
X178308952Y-108137253D01*
X178298041Y-108137230D01*
X178130360Y-108136443D01*
X177994395Y-108134774D01*
X177886244Y-108132055D01*
X177802007Y-108128119D01*
X177737781Y-108122796D01*
X177689666Y-108115920D01*
X177662568Y-108109848D01*
X177512249Y-108051782D01*
X177381224Y-107964834D01*
X177272197Y-107851652D01*
X177187874Y-107714882D01*
X177143708Y-107602421D01*
X177140584Y-107591684D01*
X177137659Y-107579431D01*
X177134926Y-107564508D01*
X177132379Y-107545759D01*
X177130012Y-107522030D01*
X177127817Y-107492166D01*
X177125788Y-107455012D01*
X177123919Y-107409414D01*
X177122203Y-107354216D01*
X177120633Y-107288263D01*
X177119204Y-107210402D01*
X177117908Y-107119477D01*
X177116739Y-107014333D01*
X177115690Y-106893816D01*
X177114755Y-106756771D01*
X177113928Y-106602043D01*
X177113202Y-106428477D01*
X177112570Y-106234919D01*
X177112025Y-106020213D01*
X177111562Y-105783205D01*
X177111174Y-105522741D01*
X177110854Y-105237665D01*
X177110595Y-104926822D01*
X177110392Y-104589058D01*
X177110237Y-104223219D01*
X177110124Y-103828148D01*
X177110047Y-103402692D01*
X177109999Y-102945695D01*
X177109973Y-102456004D01*
X177109963Y-101932462D01*
X177109962Y-101637289D01*
X177109965Y-101095367D01*
X177109977Y-100587913D01*
X177110005Y-100113769D01*
X177110057Y-99671780D01*
X177110138Y-99260790D01*
X177110257Y-98879640D01*
X177110419Y-98527176D01*
X177110631Y-98202241D01*
X177110901Y-97903678D01*
X177111235Y-97630330D01*
X177111640Y-97381042D01*
X177112123Y-97154656D01*
X177112690Y-96950016D01*
X177113349Y-96765966D01*
X177114106Y-96601349D01*
X177114968Y-96455008D01*
X177115942Y-96325788D01*
X177117035Y-96212531D01*
X177118253Y-96114082D01*
X177119603Y-96029283D01*
X177121093Y-95956978D01*
X177122729Y-95896011D01*
X177124517Y-95845225D01*
X177126465Y-95803463D01*
X177128580Y-95769570D01*
X177130868Y-95742388D01*
X177133336Y-95720761D01*
X177135991Y-95703533D01*
X177138839Y-95689547D01*
X177141888Y-95677647D01*
X177145145Y-95666675D01*
X177145185Y-95666546D01*
X177208489Y-95520344D01*
X177301057Y-95390667D01*
X177418554Y-95282199D01*
X177556643Y-95199628D01*
X177590888Y-95184782D01*
X177619890Y-95173711D01*
X177649091Y-95164847D01*
X177682823Y-95157892D01*
X177725421Y-95152549D01*
X177781216Y-95148518D01*
X177854541Y-95145503D01*
X177949730Y-95143206D01*
X178071115Y-95141329D01*
X178223030Y-95139573D01*
X178253193Y-95139255D01*
X178417638Y-95138182D01*
X178565985Y-95138496D01*
G37*
D10*
%TO.C,J3*%
X22920000Y-62636400D02*
X20260000Y-62636400D01*
X20260000Y-62636400D02*
X20260000Y-75396400D01*
X20260000Y-61366400D02*
X20260000Y-60036400D01*
X20260000Y-60036400D02*
X21590000Y-60036400D01*
X20260000Y-75396400D02*
X22920000Y-75396400D01*
X22920000Y-75396400D02*
X22920000Y-62636400D01*
%TD*%
%LPC*%
D11*
%TO.C,H4*%
X203200000Y-101600000D03*
%TD*%
D12*
%TO.C,ST_LSHIFT*%
X49244250Y-90805000D03*
D13*
X25368250Y-75565000D03*
D12*
X25368250Y-90805000D03*
D13*
X49244250Y-75565000D03*
%TD*%
%TO.C,ST_BKSP*%
X270637000Y-18415000D03*
D12*
X270637000Y-33655000D03*
D13*
X294513000Y-18415000D03*
D12*
X294513000Y-33655000D03*
%TD*%
D14*
%TO.C,H5*%
X282575000Y-101600000D03*
%TD*%
%TO.C,H3*%
X144462500Y-63500000D03*
%TD*%
D11*
%TO.C,H2*%
X40481250Y-101600000D03*
%TD*%
D12*
%TO.C,ST_ENTER*%
X292131750Y-55245000D03*
X268255750Y-55245000D03*
D13*
X292131750Y-70485000D03*
X268255750Y-70485000D03*
%TD*%
D11*
%TO.C,H1*%
X40481250Y-44450000D03*
%TD*%
D15*
%TO.C,J3*%
X21590000Y-61366400D03*
D16*
X21590000Y-63906400D03*
X21590000Y-66446400D03*
X21590000Y-68986400D03*
X21590000Y-71526400D03*
X21590000Y-74066400D03*
%TD*%
D11*
%TO.C,H6*%
X276225000Y-44454000D03*
%TD*%
D17*
%TO.C,K54*%
X215582500Y-82550000D03*
D18*
X220662500Y-82550000D03*
D17*
X225742500Y-82550000D03*
D19*
X216852500Y-80010000D03*
X223202500Y-77470000D03*
%TD*%
D20*
%TO.C,J1*%
X32035000Y-22062500D03*
X37815000Y-22062500D03*
D21*
X30605000Y-18412500D03*
D22*
X39245000Y-22592500D03*
X30605000Y-22592500D03*
D21*
X39245000Y-18412500D03*
%TD*%
D18*
%TO.C,K14*%
X282575000Y-25400000D03*
D17*
X287655000Y-25400000D03*
X277495000Y-25400000D03*
D19*
X278765000Y-22860000D03*
X285115000Y-20320000D03*
%TD*%
D17*
%TO.C,K58*%
X316230000Y-82550000D03*
D18*
X311150000Y-82550000D03*
D17*
X306070000Y-82550000D03*
D19*
X307340000Y-80010000D03*
X313690000Y-77470000D03*
%TD*%
%TO.C,K24*%
X183515000Y-41910000D03*
X189865000Y-39370000D03*
D18*
X187325000Y-44450000D03*
D17*
X182245000Y-44450000D03*
X192405000Y-44450000D03*
%TD*%
D19*
%TO.C,K51*%
X159702500Y-80010000D03*
D17*
X158432500Y-82550000D03*
D18*
X163512500Y-82550000D03*
D17*
X168592500Y-82550000D03*
D19*
X166052500Y-77470000D03*
%TD*%
D18*
%TO.C,K22*%
X149225000Y-44450000D03*
D19*
X145415000Y-41910000D03*
X151765000Y-39370000D03*
D17*
X154305000Y-44450000D03*
X144145000Y-44450000D03*
%TD*%
D19*
%TO.C,K59*%
X23971250Y-99060000D03*
D17*
X22701250Y-101600000D03*
X32861250Y-101600000D03*
D19*
X30321250Y-96520000D03*
D18*
X27781250Y-101600000D03*
%TD*%
D17*
%TO.C,K15*%
X316230000Y-25400000D03*
D18*
X311150000Y-25400000D03*
D17*
X306070000Y-25400000D03*
D19*
X313690000Y-20320000D03*
X307340000Y-22860000D03*
%TD*%
%TO.C,K6*%
X116840000Y-22860000D03*
D18*
X120650000Y-25400000D03*
D17*
X125730000Y-25400000D03*
X115570000Y-25400000D03*
D19*
X123190000Y-20320000D03*
%TD*%
%TO.C,K55*%
X242252500Y-77470000D03*
D17*
X234632500Y-82550000D03*
X244792500Y-82550000D03*
D18*
X239712500Y-82550000D03*
D19*
X235902500Y-80010000D03*
%TD*%
D18*
%TO.C,K9*%
X177800000Y-25400000D03*
D19*
X173990000Y-22860000D03*
X180340000Y-20320000D03*
D17*
X182880000Y-25400000D03*
X172720000Y-25400000D03*
%TD*%
D18*
%TO.C,K53*%
X201612500Y-82550000D03*
D19*
X204152500Y-77470000D03*
X197802500Y-80010000D03*
D17*
X206692500Y-82550000D03*
X196532500Y-82550000D03*
%TD*%
D18*
%TO.C,K31*%
X32543750Y-63500000D03*
D17*
X27463750Y-63500000D03*
D19*
X28733750Y-60960000D03*
D17*
X37623750Y-63500000D03*
D19*
X35083750Y-58420000D03*
%TD*%
%TO.C,K28*%
X266065000Y-39370000D03*
D17*
X268605000Y-44450000D03*
D18*
X263525000Y-44450000D03*
D17*
X258445000Y-44450000D03*
D19*
X259715000Y-41910000D03*
%TD*%
%TO.C,K30*%
X313690000Y-39370000D03*
D18*
X311150000Y-44450000D03*
D17*
X306070000Y-44450000D03*
X316230000Y-44450000D03*
D19*
X307340000Y-41910000D03*
%TD*%
D17*
%TO.C,K23*%
X163195000Y-44450000D03*
X173355000Y-44450000D03*
D19*
X170815000Y-39370000D03*
X164465000Y-41910000D03*
D18*
X168275000Y-44450000D03*
%TD*%
D23*
%TO.C,J2*%
X21590000Y-46228000D03*
D24*
X21590000Y-49403000D03*
X21590000Y-52578000D03*
X21590000Y-55753000D03*
%TD*%
D19*
%TO.C,K17*%
X56515000Y-39370000D03*
D18*
X53975000Y-44450000D03*
D17*
X48895000Y-44450000D03*
D19*
X50165000Y-41910000D03*
D17*
X59055000Y-44450000D03*
%TD*%
D19*
%TO.C,K26*%
X227965000Y-39370000D03*
D17*
X220345000Y-44450000D03*
X230505000Y-44450000D03*
D19*
X221615000Y-41910000D03*
D18*
X225425000Y-44450000D03*
%TD*%
D17*
%TO.C,K61*%
X80486250Y-101600000D03*
D19*
X77946250Y-96520000D03*
D17*
X70326250Y-101600000D03*
D19*
X71596250Y-99060000D03*
D18*
X75406250Y-101600000D03*
%TD*%
D17*
%TO.C,K5*%
X96520000Y-25400000D03*
D19*
X104140000Y-20320000D03*
D18*
X101600000Y-25400000D03*
D19*
X97790000Y-22860000D03*
D17*
X106680000Y-25400000D03*
%TD*%
%TO.C,K29*%
X292417500Y-44450000D03*
D19*
X283527500Y-41910000D03*
X289877500Y-39370000D03*
D17*
X282257500Y-44450000D03*
D18*
X287337500Y-44450000D03*
%TD*%
D19*
%TO.C,K47*%
X83502500Y-80010000D03*
D17*
X92392500Y-82550000D03*
D18*
X87312500Y-82550000D03*
D19*
X89852500Y-77470000D03*
D17*
X82232500Y-82550000D03*
%TD*%
D18*
%TO.C,K64*%
X249237500Y-101600000D03*
D19*
X245427500Y-99060000D03*
D17*
X244157500Y-101600000D03*
D19*
X251777500Y-96520000D03*
D17*
X254317500Y-101600000D03*
%TD*%
%TO.C,K2*%
X39370000Y-25400000D03*
D18*
X44450000Y-25400000D03*
D17*
X49530000Y-25400000D03*
D19*
X48260000Y-27940000D03*
X41910000Y-30480000D03*
%TD*%
%TO.C,K42*%
X251777500Y-58420000D03*
X245427500Y-60960000D03*
D18*
X249237500Y-63500000D03*
D17*
X254317500Y-63500000D03*
X244157500Y-63500000D03*
%TD*%
%TO.C,K38*%
X178117500Y-63500000D03*
D19*
X169227500Y-60960000D03*
D17*
X167957500Y-63500000D03*
D18*
X173037500Y-63500000D03*
D19*
X175577500Y-58420000D03*
%TD*%
D17*
%TO.C,K20*%
X106045000Y-44450000D03*
X116205000Y-44450000D03*
D19*
X107315000Y-41910000D03*
X113665000Y-39370000D03*
D18*
X111125000Y-44450000D03*
%TD*%
D17*
%TO.C,K52*%
X177482500Y-82550000D03*
D19*
X178752500Y-80010000D03*
X185102500Y-77470000D03*
D17*
X187642500Y-82550000D03*
D18*
X182562500Y-82550000D03*
%TD*%
D19*
%TO.C,K27*%
X247015000Y-39370000D03*
D18*
X244475000Y-44450000D03*
D17*
X249555000Y-44450000D03*
D19*
X240665000Y-41910000D03*
D17*
X239395000Y-44450000D03*
%TD*%
%TO.C,K4*%
X87630000Y-25400000D03*
D19*
X78740000Y-22860000D03*
D18*
X82550000Y-25400000D03*
D17*
X77470000Y-25400000D03*
D19*
X85090000Y-20320000D03*
%TD*%
%TO.C,K48*%
X108902500Y-77470000D03*
D17*
X111442500Y-82550000D03*
X101282500Y-82550000D03*
D19*
X102552500Y-80010000D03*
D18*
X106362500Y-82550000D03*
%TD*%
%TO.C,K49*%
X125412500Y-82550000D03*
D17*
X130492500Y-82550000D03*
D19*
X127952500Y-77470000D03*
D17*
X120332500Y-82550000D03*
D19*
X121602500Y-80010000D03*
%TD*%
D18*
%TO.C,K41*%
X230187500Y-63500000D03*
D19*
X226377500Y-60960000D03*
D17*
X235267500Y-63500000D03*
D19*
X232727500Y-58420000D03*
D17*
X225107500Y-63500000D03*
%TD*%
D19*
%TO.C,K33*%
X80327500Y-58420000D03*
D17*
X72707500Y-63500000D03*
X82867500Y-63500000D03*
D19*
X73977500Y-60960000D03*
D18*
X77787500Y-63500000D03*
%TD*%
D17*
%TO.C,K1*%
X30480000Y-25400000D03*
D18*
X25400000Y-25400000D03*
D19*
X22860000Y-30480000D03*
X29210000Y-27940000D03*
D17*
X20320000Y-25400000D03*
%TD*%
D12*
%TO.C,ST_SPACE*%
X96805750Y-93345000D03*
D13*
X196881750Y-108585000D03*
D12*
X196881750Y-93345000D03*
D13*
X96805750Y-108585000D03*
%TD*%
D19*
%TO.C,K32*%
X54927500Y-60960000D03*
D18*
X58737500Y-63500000D03*
D17*
X63817500Y-63500000D03*
X53657500Y-63500000D03*
D19*
X61277500Y-58420000D03*
%TD*%
%TO.C,K19*%
X94615000Y-39370000D03*
D18*
X92075000Y-44450000D03*
D17*
X86995000Y-44450000D03*
X97155000Y-44450000D03*
D19*
X88265000Y-41910000D03*
%TD*%
D17*
%TO.C,K18*%
X67945000Y-44450000D03*
D19*
X69215000Y-41910000D03*
D18*
X73025000Y-44450000D03*
D19*
X75565000Y-39370000D03*
D17*
X78105000Y-44450000D03*
%TD*%
%TO.C,K25*%
X201295000Y-44450000D03*
D19*
X208915000Y-39370000D03*
D17*
X211455000Y-44450000D03*
D19*
X202565000Y-41910000D03*
D18*
X206375000Y-44450000D03*
%TD*%
D19*
%TO.C,K50*%
X140652500Y-80010000D03*
X147002500Y-77470000D03*
D17*
X149542500Y-82550000D03*
D18*
X144462500Y-82550000D03*
D17*
X139382500Y-82550000D03*
%TD*%
D19*
%TO.C,K45*%
X39846250Y-77470000D03*
D18*
X37306250Y-82550000D03*
D17*
X42386250Y-82550000D03*
X32226250Y-82550000D03*
D19*
X33496250Y-80010000D03*
%TD*%
D17*
%TO.C,K36*%
X140017500Y-63500000D03*
X129857500Y-63500000D03*
D19*
X131127500Y-60960000D03*
D18*
X134937500Y-63500000D03*
D19*
X137477500Y-58420000D03*
%TD*%
D17*
%TO.C,K39*%
X187007500Y-63500000D03*
D18*
X192087500Y-63500000D03*
D17*
X197167500Y-63500000D03*
D19*
X194627500Y-58420000D03*
X188277500Y-60960000D03*
%TD*%
D17*
%TO.C,K3*%
X58420000Y-25400000D03*
D18*
X63500000Y-25400000D03*
D19*
X59690000Y-22860000D03*
X66040000Y-20320000D03*
D17*
X68580000Y-25400000D03*
%TD*%
%TO.C,K37*%
X159067500Y-63500000D03*
D19*
X156527500Y-58420000D03*
D17*
X148907500Y-63500000D03*
D18*
X153987500Y-63500000D03*
D19*
X150177500Y-60960000D03*
%TD*%
D17*
%TO.C,K60*%
X46513750Y-101600000D03*
D18*
X51593750Y-101600000D03*
D19*
X54133750Y-96520000D03*
D17*
X56673750Y-101600000D03*
D19*
X47783750Y-99060000D03*
%TD*%
%TO.C,K40*%
X207327500Y-60960000D03*
D17*
X216217500Y-63500000D03*
D19*
X213677500Y-58420000D03*
D18*
X211137500Y-63500000D03*
D17*
X206057500Y-63500000D03*
%TD*%
D18*
%TO.C,K43*%
X280193750Y-63500000D03*
D19*
X276383750Y-60960000D03*
D17*
X275113750Y-63500000D03*
D19*
X282733750Y-58420000D03*
D17*
X285273750Y-63500000D03*
%TD*%
D19*
%TO.C,K10*%
X199390000Y-20320000D03*
D18*
X196850000Y-25400000D03*
D17*
X201930000Y-25400000D03*
X191770000Y-25400000D03*
D19*
X193040000Y-22860000D03*
%TD*%
%TO.C,K46*%
X64452500Y-80010000D03*
D18*
X68262500Y-82550000D03*
D19*
X70802500Y-77470000D03*
D17*
X63182500Y-82550000D03*
X73342500Y-82550000D03*
%TD*%
%TO.C,K56*%
X270986250Y-82550000D03*
D18*
X265906250Y-82550000D03*
D17*
X260826250Y-82550000D03*
D19*
X262096250Y-80010000D03*
X268446250Y-77470000D03*
%TD*%
%TO.C,K13*%
X250190000Y-22860000D03*
D18*
X254000000Y-25400000D03*
D17*
X259080000Y-25400000D03*
X248920000Y-25400000D03*
D19*
X256540000Y-20320000D03*
%TD*%
D17*
%TO.C,K34*%
X91757500Y-63500000D03*
D19*
X93027500Y-60960000D03*
X99377500Y-58420000D03*
D17*
X101917500Y-63500000D03*
D18*
X96837500Y-63500000D03*
%TD*%
D17*
%TO.C,K62*%
X151923750Y-101600000D03*
D19*
X149383750Y-96520000D03*
D17*
X141763750Y-101600000D03*
D19*
X143033750Y-99060000D03*
D18*
X146843750Y-101600000D03*
%TD*%
D17*
%TO.C,K35*%
X110807500Y-63500000D03*
D19*
X118427500Y-58420000D03*
D17*
X120967500Y-63500000D03*
D18*
X115887500Y-63500000D03*
D19*
X112077500Y-60960000D03*
%TD*%
%TO.C,K65*%
X269240000Y-99060000D03*
D18*
X273050000Y-101600000D03*
D17*
X267970000Y-101600000D03*
D19*
X275590000Y-96520000D03*
D17*
X278130000Y-101600000D03*
%TD*%
D18*
%TO.C,K63*%
X220662500Y-101600000D03*
D19*
X223202500Y-96520000D03*
D17*
X215582500Y-101600000D03*
D19*
X216852500Y-99060000D03*
D17*
X225742500Y-101600000D03*
%TD*%
%TO.C,K44*%
X316230000Y-63500000D03*
D19*
X307340000Y-60960000D03*
X313690000Y-58420000D03*
D17*
X306070000Y-63500000D03*
D18*
X311150000Y-63500000D03*
%TD*%
D19*
%TO.C,K16*%
X32702500Y-39370000D03*
X26352500Y-41910000D03*
D17*
X25082500Y-44450000D03*
D18*
X30162500Y-44450000D03*
D17*
X35242500Y-44450000D03*
%TD*%
D19*
%TO.C,K67*%
X313690000Y-96520000D03*
D18*
X311150000Y-101600000D03*
D17*
X316230000Y-101600000D03*
D19*
X307340000Y-99060000D03*
D17*
X306070000Y-101600000D03*
%TD*%
%TO.C,K57*%
X287020000Y-82550000D03*
D19*
X294640000Y-77470000D03*
X288290000Y-80010000D03*
D18*
X292100000Y-82550000D03*
D17*
X297180000Y-82550000D03*
%TD*%
D18*
%TO.C,K66*%
X292100000Y-101600000D03*
D17*
X287020000Y-101600000D03*
D19*
X294640000Y-96520000D03*
D17*
X297180000Y-101600000D03*
D19*
X288290000Y-99060000D03*
%TD*%
D17*
%TO.C,K11*%
X210820000Y-25400000D03*
D19*
X218440000Y-20320000D03*
X212090000Y-22860000D03*
D18*
X215900000Y-25400000D03*
D17*
X220980000Y-25400000D03*
%TD*%
%TO.C,K8*%
X163830000Y-25400000D03*
X153670000Y-25400000D03*
D18*
X158750000Y-25400000D03*
D19*
X154940000Y-22860000D03*
X161290000Y-20320000D03*
%TD*%
D17*
%TO.C,K7*%
X134620000Y-25400000D03*
D18*
X139700000Y-25400000D03*
D19*
X135890000Y-22860000D03*
D17*
X144780000Y-25400000D03*
D19*
X142240000Y-20320000D03*
%TD*%
%TO.C,K21*%
X126365000Y-41910000D03*
X132715000Y-39370000D03*
D18*
X130175000Y-44450000D03*
D17*
X135255000Y-44450000D03*
X125095000Y-44450000D03*
%TD*%
D19*
%TO.C,K12*%
X231140000Y-22860000D03*
X237490000Y-20320000D03*
D17*
X240030000Y-25400000D03*
D18*
X234950000Y-25400000D03*
D17*
X229870000Y-25400000D03*
%TD*%
M02*
