M48
; DRILL file {KiCad (5.99.0-2809-gaceed2b0a4)} date 09/11/20 02:07:35
; FORMAT={-:-/ absolute / inch / decimal}
; #@! TF.CreationDate,2020-09-11T02:07:35-04:00
; #@! TF.GenerationSoftware,Kicad,Pcbnew,(5.99.0-2809-gaceed2b0a4)
; #@! TF.FileFunction,NonPlated,1,2,NPTH
FMAT,2
INCH
T1C0.0256
T2C0.0669
T3C0.1161
T4C0.1200
T5C0.1567
T6C0.1570
%
G90
G05
T1
X1.2612Y-0.8686
X1.4888Y-0.8686
T2
X5.4875Y-3.25
X5.8875Y-3.25
X8.4875Y-4.0
X8.8875Y-4.0
X3.425Y-1.75
X3.825Y-1.75
X5.1125Y-2.5
X5.5125Y-2.5
X5.8625Y-2.5
X6.2625Y-2.5
X7.925Y-1.75
X8.325Y-1.75
X2.3Y-1.0
X2.7Y-1.0
X8.1125Y-2.5
X8.5125Y-2.5
X6.9875Y-3.25
X7.3875Y-3.25
X3.6125Y-2.5
X4.0125Y-2.5
X3.2375Y-3.25
X3.6375Y-3.25
X2.1125Y-2.5
X2.5125Y-2.5
X11.1125Y-1.75
X11.5125Y-1.75
X6.6125Y-2.5
X7.0125Y-2.5
X3.8Y-1.0
X4.2Y-1.0
X2.675Y-1.75
X3.075Y-1.75
X10.8312Y-2.5
X11.2312Y-2.5
X0.8Y-1.0
X1.2Y-1.0
X2.7687Y-4.0
X3.1687Y-4.0
X1.0813Y-2.5
X1.4812Y-2.5
X12.05Y-1.0
X12.45Y-1.0
X8.4875Y-3.25
X8.8875Y-3.25
X7.7375Y-3.25
X8.1375Y-3.25
X1.2688Y-3.25
X1.6687Y-3.25
X7.55Y-1.0
X7.95Y-1.0
X4.7375Y-3.25
X5.1375Y-3.25
X12.05Y-1.75
X12.45Y-1.75
X3.05Y-1.0
X3.45Y-1.0
X8.675Y-1.75
X9.075Y-1.75
X4.3625Y-2.5
X4.7625Y-2.5
X9.425Y-1.75
X9.825Y-1.75
X9.2375Y-3.25
X9.6375Y-3.25
X1.8313Y-4.0
X2.2312Y-4.0
X4.175Y-1.75
X4.575Y-1.75
X5.5812Y-4.0
X5.9813Y-4.0
X0.8937Y-4.0
X1.2937Y-4.0
X1.55Y-1.0
X1.95Y-1.0
X6.425Y-1.75
X6.825Y-1.75
X11.3Y-4.0
X11.7Y-4.0
X6.8Y-1.0
X7.2Y-1.0
X10.2687Y-3.25
X10.6687Y-3.25
X2.4875Y-3.25
X2.8875Y-3.25
X11.3Y-3.25
X11.7Y-3.25
X9.6125Y-2.5
X10.0125Y-2.5
X4.925Y-1.75
X5.325Y-1.75
X8.8625Y-2.5
X9.2625Y-2.5
X5.675Y-1.75
X6.075Y-1.75
X5.3Y-1.0
X5.7Y-1.0
X6.2375Y-3.25
X6.6375Y-3.25
X9.6125Y-4.0
X10.0125Y-4.0
X9.8Y-1.0
X10.2Y-1.0
X8.3Y-1.0
X8.7Y-1.0
X3.9875Y-3.25
X4.3875Y-3.25
X9.05Y-1.0
X9.45Y-1.0
X1.925Y-1.75
X2.325Y-1.75
X10.175Y-1.75
X10.575Y-1.75
X2.8625Y-2.5
X3.2625Y-2.5
X6.05Y-1.0
X6.45Y-1.0
X4.55Y-1.0
X4.95Y-1.0
X12.05Y-3.25
X12.45Y-3.25
X10.925Y-1.0
X11.325Y-1.0
X7.175Y-1.75
X7.575Y-1.75
X12.05Y-4.0
X12.45Y-4.0
X0.9875Y-1.75
X1.3875Y-1.75
X12.05Y-2.5
X12.45Y-2.5
X10.55Y-4.0
X10.95Y-4.0
X7.3625Y-2.5
X7.7625Y-2.5
T3
X12.1Y-3.9
X12.35Y-3.8
X1.0375Y-1.65
X1.2875Y-1.55
X12.1Y-2.4
X12.35Y-2.3
X10.6Y-3.9
X10.85Y-3.8
X7.4125Y-2.4
X7.6625Y-2.3
X5.5375Y-3.15
X5.7875Y-3.05
X8.5375Y-3.9
X8.7875Y-3.8
X3.475Y-1.65
X3.725Y-1.55
X5.1625Y-2.4
X5.4125Y-2.3
X5.9125Y-2.4
X6.1625Y-2.3
X7.975Y-1.65
X8.225Y-1.55
X2.35Y-0.9
X2.6Y-0.8
X8.1625Y-2.4
X8.4125Y-2.3
X7.0375Y-3.15
X7.2875Y-3.05
X3.6625Y-2.4
X3.9125Y-2.3
X3.2875Y-3.15
X3.5375Y-3.05
X2.1625Y-2.4
X2.4125Y-2.3
X11.1625Y-1.65
X11.4125Y-1.55
X6.6625Y-2.4
X6.9125Y-2.3
X3.85Y-0.9
X4.1Y-0.8
X2.725Y-1.65
X2.975Y-1.55
X10.8812Y-2.4
X11.1312Y-2.3
X0.9Y-1.2
X1.15Y-1.1
X2.8188Y-3.9
X3.0688Y-3.8
X1.1312Y-2.4
X1.3812Y-2.3
X12.1Y-0.9
X12.35Y-0.8
X8.5375Y-3.15
X8.7875Y-3.05
X7.7875Y-3.15
X8.0375Y-3.05
X1.3187Y-3.15
X1.5687Y-3.05
X7.6Y-0.9
X7.85Y-0.8
X4.7875Y-3.15
X5.0375Y-3.05
X12.1Y-1.65
X12.35Y-1.55
X3.1Y-0.9
X3.35Y-0.8
X8.725Y-1.65
X8.975Y-1.55
X4.4125Y-2.4
X4.6625Y-2.3
X9.475Y-1.65
X9.725Y-1.55
X9.2875Y-3.15
X9.5375Y-3.05
X1.8812Y-3.9
X2.1313Y-3.8
X4.225Y-1.65
X4.475Y-1.55
X5.6312Y-3.9
X5.8812Y-3.8
X0.9437Y-3.9
X1.1937Y-3.8
X1.65Y-1.2
X1.9Y-1.1
X6.475Y-1.65
X6.725Y-1.55
X11.35Y-3.9
X11.6Y-3.8
X6.85Y-0.9
X7.1Y-0.8
X10.3187Y-3.15
X10.5687Y-3.05
X2.5375Y-3.15
X2.7875Y-3.05
X11.35Y-3.15
X11.6Y-3.05
X9.6625Y-2.4
X9.9125Y-2.3
X4.975Y-1.65
X5.225Y-1.55
X8.9125Y-2.4
X9.1625Y-2.3
X5.725Y-1.65
X5.975Y-1.55
X5.35Y-0.9
X5.6Y-0.8
X6.2875Y-3.15
X6.5375Y-3.05
X9.6625Y-3.9
X9.9125Y-3.8
X9.85Y-0.9
X10.1Y-0.8
X8.35Y-0.9
X8.6Y-0.8
X4.0375Y-3.15
X4.2875Y-3.05
X9.1Y-0.9
X9.35Y-0.8
X1.975Y-1.65
X2.225Y-1.55
X10.225Y-1.65
X10.475Y-1.55
X2.9125Y-2.4
X3.1625Y-2.3
X6.1Y-0.9
X6.35Y-0.8
X4.6Y-0.9
X4.85Y-0.8
X12.1Y-3.15
X12.35Y-3.05
X10.975Y-0.9
X11.225Y-0.8
X7.225Y-1.65
X7.475Y-1.55
T4
X10.655Y-0.725
X11.595Y-0.725
X0.9988Y-2.975
X1.9387Y-2.975
X3.8112Y-4.275
X7.7512Y-4.275
X10.5612Y-2.775
X11.5012Y-2.775
T5
X10.75Y-4.0
X7.5625Y-2.5
X5.6875Y-3.25
X8.6875Y-4.0
X3.625Y-1.75
X5.3125Y-2.5
X6.0625Y-2.5
X8.125Y-1.75
X2.5Y-1.0
X8.3125Y-2.5
X7.1875Y-3.25
X3.8125Y-2.5
X3.4375Y-3.25
X2.3125Y-2.5
X11.3125Y-1.75
X6.8125Y-2.5
X4.0Y-1.0
X2.875Y-1.75
X11.0312Y-2.5
X1.0Y-1.0
X2.9688Y-4.0
X1.2812Y-2.5
X12.25Y-1.0
X8.6875Y-3.25
X7.9375Y-3.25
X1.4688Y-3.25
X7.75Y-1.0
X4.9375Y-3.25
X12.25Y-1.75
X3.25Y-1.0
X8.875Y-1.75
X4.5625Y-2.5
X9.625Y-1.75
X9.4375Y-3.25
X2.0312Y-4.0
X4.375Y-1.75
X5.7812Y-4.0
X1.0938Y-4.0
X1.75Y-1.0
X6.625Y-1.75
X11.5Y-4.0
X7.0Y-1.0
X10.4688Y-3.25
X2.6875Y-3.25
X11.5Y-3.25
X9.8125Y-2.5
X5.125Y-1.75
X9.0625Y-2.5
X5.875Y-1.75
X5.5Y-1.0
X6.4375Y-3.25
X9.8125Y-4.0
X10.0Y-1.0
X8.5Y-1.0
X4.1875Y-3.25
X9.25Y-1.0
X2.125Y-1.75
X10.375Y-1.75
X3.0625Y-2.5
X6.25Y-1.0
X4.75Y-1.0
X12.25Y-3.25
X11.125Y-1.0
X7.375Y-1.75
X12.25Y-4.0
X1.1875Y-1.75
X12.25Y-2.5
T6
X10.655Y-1.325
X11.595Y-1.325
X0.9988Y-3.575
X1.9387Y-3.575
X3.8112Y-3.675
X7.7512Y-3.675
X10.5612Y-2.175
X11.5012Y-2.175
T0
M30
