M48
; DRILL file {KiCad (5.99.0-2809-gaceed2b0a4)} date 09/11/20 02:07:35
; FORMAT={-:-/ absolute / inch / decimal}
; #@! TF.CreationDate,2020-09-11T02:07:35-04:00
; #@! TF.GenerationSoftware,Kicad,Pcbnew,(5.99.0-2809-gaceed2b0a4)
; #@! TF.FileFunction,Plated,1,2,PTH
FMAT,2
INCH
T1C0.0157
T2C0.0236
T3C0.0315
T4C0.0394
T5C0.0906
T6C0.0984
%
G90
G05
T1
X0.775Y-2.13
X0.795Y-3.6
X0.89Y-1.38
X0.915Y-2.32
X0.915Y-2.39
X0.95Y-1.54
X0.985Y-2.565
X1.0096Y-2.32
X1.0101Y-2.2885
X1.064Y-2.212
X1.17Y-3.315
X1.178Y-2.102
X1.22Y-1.17
X1.228Y-2.044
X1.245Y-1.275
X1.26Y-2.044
X1.295Y-1.02
X1.305Y-0.985
X1.355Y-3.725
X1.364Y-1.864
X1.382Y-1.89
X1.406Y-2.102
X1.426Y-2.132
X1.43Y-1.625
X1.43Y-1.675
X1.44Y-0.985
X1.444Y-2.158
X1.456Y-1.02
X1.458Y-1.308
X1.475Y-1.275
X1.51Y-1.94
X1.51Y-1.99
X1.51Y-2.04
X1.51Y-2.132
X1.53Y-1.275
X1.53Y-1.915
X1.53Y-1.965
X1.53Y-2.015
X1.53Y-2.158
X1.545Y-1.495
X1.555Y-1.54
X1.564Y-2.102
X1.565Y-2.41
X1.59Y-2.39
X1.615Y-2.41
X1.636Y-1.496
X1.64Y-2.39
X1.665Y-2.41
X1.69Y-2.39
X1.715Y-2.41
X1.718Y-1.89
X1.73Y-2.965
X1.736Y-1.864
X1.755Y-1.54
X1.77Y-3.592
X1.77Y-3.624
X1.775Y-1.825
X1.775Y-1.88
X1.79Y-2.345
X1.81Y-1.895
X1.83Y-2.345
X1.835Y-1.848
X1.8592Y-1.88
X1.865Y-1.565
X1.907Y-2.253
X1.915Y-2.716
X1.945Y-2.658
X1.95Y-2.255
X1.975Y-2.685
X2.0Y-1.985
X2.0Y-2.16
X2.01Y-3.825
X2.0109Y-3.788
X2.015Y-1.83
X2.016Y-2.098
X2.12Y-2.92
X2.205Y-4.115
X2.205Y-4.23
X2.295Y-3.725
X2.485Y-2.15
X2.57Y-2.235
X2.76Y-0.88
X2.95Y-2.965
X3.13Y-1.47
X3.23Y-3.725
X3.24Y-2.135
X3.3198Y-2.215
X3.51Y-0.88
X3.695Y-2.97
X3.8824Y-1.47
X3.97Y-2.115
X4.07Y-2.215
X4.26Y-0.88
X4.45Y-2.965
X4.63Y-1.47
X4.7Y-2.095
X4.82Y-2.215
X5.01Y-0.88
X5.195Y-2.965
X5.38Y-1.47
X5.435Y-2.08
X5.57Y-2.215
X5.76Y-0.88
X5.95Y-2.965
X6.045Y-3.725
X6.135Y-1.47
X6.165Y-2.06
X6.32Y-2.215
X6.51Y-0.88
X6.695Y-2.965
X6.885Y-1.47
X6.9Y-2.045
X7.07Y-2.215
X7.2592Y-0.8819
X7.445Y-2.965
X7.61Y-4.106
X7.61Y-4.264
X7.63Y-1.47
X7.635Y-2.025
X7.825Y-2.215
X8.0112Y-0.88
X8.2Y-2.965
X8.38Y-1.47
X8.38Y-2.01
X8.57Y-2.215
X8.76Y-0.878
X8.945Y-2.965
X8.945Y-3.725
X9.135Y-1.47
X9.135Y-1.99
X9.325Y-2.215
X9.51Y-0.88
X9.7Y-2.965
X9.885Y-1.47
X9.885Y-1.97
X10.07Y-2.215
X10.07Y-3.725
X10.26Y-0.8819
X10.635Y-1.47
X10.725Y-2.965
X10.81Y-1.955
X11.01Y-3.725
X11.29Y-2.215
X11.3852Y-0.88
X11.575Y-1.47
X11.76Y-1.935
X11.76Y-2.965
X11.76Y-3.725
X12.3898Y-1.9098
X12.49Y-0.88
X12.49Y-1.47
X12.49Y-2.215
X12.49Y-2.965
X12.51Y-3.725
T3
X11.7493Y-4.1562
X11.8743Y-4.1562
X11.9993Y-4.1562
X0.85Y-1.82
X0.85Y-1.945
X0.85Y-2.07
X0.85Y-2.195
T4
X0.85Y-2.416
X0.85Y-2.516
X0.85Y-2.616
X0.85Y-2.716
X0.85Y-2.816
X0.85Y-2.916
X1.788Y-3.276
X1.888Y-3.276
X1.988Y-3.276
X2.088Y-3.276
X2.188Y-3.276
X2.288Y-3.276
T5
X5.6875Y-2.5
X11.125Y-4.0
T2
G00X1.2049Y-0.7131
M15
G01X1.2049Y-0.7367
M16
G05
G00X1.2049Y-0.8678
M15
G01X1.2049Y-0.9111
M16
G05
G00X1.5451Y-0.7131
M15
G01X1.5451Y-0.7367
M16
G05
G00X1.5451Y-0.8678
M15
G01X1.5451Y-0.9111
M16
G05
T6
G00X7.9606Y-4.0
M15
G01X8.0394Y-4.0
M16
G05
G00X1.5544Y-4.0
M15
G01X1.6331Y-4.0
M16
G05
G00X1.5544Y-1.75
M15
G01X1.6331Y-1.75
M16
G05
G00X10.8356Y-1.7502
M15
G01X10.9144Y-1.7502
M16
G05
T0
M30
